<?xml version="1.0" encoding="utf-8"?>
<!-- Generator: Adobe Illustrator 15.0.0, SVG Export Plug-In  -->
<!DOCTYPE svg PUBLIC "-//W3C//DTD SVG 1.1//EN" "http://www.w3.org/Graphics/SVG/1.1/DTD/svg11.dtd" [
	<!ENTITY ns_flows "http://ns.adobe.com/Flows/1.0/">
]>
<svg version="1.1"
	 xmlns="http://www.w3.org/2000/svg" xmlns:xlink="http://www.w3.org/1999/xlink" xmlns:a="http://ns.adobe.com/AdobeSVGViewerExtensions/3.0/"
	 x="0px" y="0px" width="170px" height="45px" viewBox="0 -9 170 45" enable-background="new 0 -9 170 45" xml:space="preserve">
<defs>
</defs>
<g id="Salma_1_">
	<g>
		<path fill-rule="evenodd" clip-rule="evenodd" fill="#FFFFFF" d="M74.825,12.425c-0.57-0.489-1.265-0.899-2.085-1.229
			c-0.82-0.33-1.74-0.635-2.76-0.915c-0.74-0.2-1.39-0.38-1.95-0.54s-1.025-0.335-1.395-0.525c-0.37-0.189-0.65-0.405-0.84-0.645
			c-0.19-0.24-0.285-0.54-0.285-0.9c0-1.18,0.88-1.77,2.64-1.77c0.64,0,1.28,0.09,1.92,0.27s1.23,0.39,1.77,0.63
			s0.99,0.471,1.35,0.69s0.57,0.37,0.63,0.45l2.16-4.08c-0.48-0.28-1.005-0.56-1.575-0.841C73.835,2.74,73.22,2.49,72.56,2.27
			C71.9,2.05,71.21,1.87,70.49,1.73C69.77,1.59,69.04,1.52,68.3,1.52c-1.06,0-2.065,0.15-3.015,0.45
			c-0.95,0.3-1.785,0.745-2.505,1.335c-0.72,0.591-1.29,1.315-1.71,2.176c-0.42,0.859-0.63,1.85-0.63,2.97
			c0,0.8,0.115,1.5,0.345,2.1c0.229,0.601,0.58,1.13,1.05,1.59c0.47,0.461,1.065,0.865,1.785,1.216c0.72,0.35,1.57,0.675,2.55,0.975
			c0.74,0.221,1.425,0.42,2.055,0.6c0.63,0.181,1.175,0.375,1.635,0.585s0.82,0.445,1.08,0.705c0.26,0.261,0.39,0.591,0.39,0.99
			c0,1.061-0.87,1.59-2.61,1.59c-0.82,0-1.63-0.109-2.43-0.33c-0.8-0.22-1.525-0.47-2.175-0.75c-0.65-0.279-1.195-0.56-1.635-0.84
			c-0.44-0.279-0.7-0.47-0.78-0.57l-2.16,4.29c0.62,0.42,1.294,0.791,2.025,1.11c0.73,0.32,1.485,0.596,2.265,0.825
			c0.78,0.23,1.58,0.405,2.4,0.524c0.82,0.12,1.62,0.181,2.4,0.181c1.02,0,2.01-0.115,2.97-0.346c0.96-0.229,1.81-0.6,2.55-1.109
			c0.74-0.51,1.335-1.18,1.785-2.01c0.45-0.83,0.675-1.846,0.675-3.045c0-0.98-0.155-1.82-0.465-2.521
			C75.834,13.51,75.395,12.915,74.825,12.425z M84.92,1.7L77.15,23h5.04l1.62-4.77h6.629L92.09,23h5.04L89.359,1.7H84.92z
			 M84.59,14.84l2.551-7.53l2.489,7.53H84.59z M104.15,1.7h-4.92V23h15.239v-4.32H104.15V1.7z M127.64,12.83L122.119,1.7h-5.34V23
			h4.92V10.25l4.62,9.27h2.641l4.62-9.27V23h4.92V1.7h-5.311L127.64,12.83z M152.81,1.7h-4.44L140.6,23h5.039l1.62-4.77h6.63
			l1.65,4.77h5.04L152.81,1.7z M148.039,14.84l2.55-7.53l2.49,7.53H148.039z"/>
	</g>
</g>
<g id="Ellipse_1_1_">
	<g>
		<circle fill-rule="evenodd" clip-rule="evenodd" fill="#FFF17B" cx="13.5" cy="13.5" r="13.5"/>
	</g>
</g>
<g id="Ellipse_1_copy_1_">
	<g>
		<circle fill-rule="evenodd" clip-rule="evenodd" fill="#FFFFFF" cx="33.5" cy="13.5" r="13.5"/>
	</g>
</g>
</svg>
