<svg height="512pt" viewBox="0 -12 512 511" width="512pt" xmlns="http://www.w3.org/2000/svg"><path d="m230 132.101562h237.542969c20.410156 0 36.957031 16.542969 36.957031 36.953126v155.613281c0 20.410156-16.546875 36.953125-36.957031 36.953125-9.019531 0-15.683594 8.410156-13.625 17.191406l22.515625 96.019531c1.027344 4.382813-4.398438 7.304688-7.488282 4.035157l-106.804687-112.871094c-2.644531-2.792969-6.320313-4.375-10.164063-4.375h-121.976562c-20.410156 0-36.957031-16.546875-36.957031-36.957032v-155.609374c0-20.410157 16.546875-36.953126 36.957031-36.953126zm0 0" fill="#8abe50"/><path d="m467.542969 132.101562h-50.5c20.410156 0 36.957031 16.542969 36.957031 36.953126v155.613281c0 20.410156-16.546875 36.953125-36.957031 36.953125-9.019531 0-15.683594 8.410156-13.625 17.191406l9.605469 40.957031 55.921874 59.097657c3.089844 3.269531 8.515626.347656 7.488282-4.03125l-22.515625-96.023438c-2.058594-8.78125 4.605469-17.191406 13.625-17.191406 20.410156 0 36.957031-16.542969 36.957031-36.953125v-155.613281c0-20.410157-16.546875-36.953126-36.957031-36.953126zm0 0" fill="#7ba840"/><path d="m322.105469 299.695312c0-.554687.183593-.925781.371093-1.480468l37.800782-123.226563c1.113281-3.707031 5.375-5.375 9.636718-5.375 4.261719 0 8.523438 1.855469 9.636719 5.375l37.800781 123.226563c0 .554687.1875.925781.1875 1.296875 0 3.707031-5.1875 6.671875-9.636718 6.671875-2.59375 0-4.816406-1.113282-5.558594-3.523438l-8.152344-27.609375h-48.738281l-8.152344 27.609375c-.738281 2.410156-2.964843 3.523438-5.742187 3.523438-4.078125 0-9.453125-2.59375-9.453125-6.488282zm68.375-37.429687-20.566407-69.675781-20.9375 69.675781zm0 0"/><path d="m282 8h-237.542969c-20.410156 0-36.957031 16.546875-36.957031 36.953125v155.613281c0 20.410156 16.546875 36.957032 36.957031 36.957032 9.019531 0 15.683594 8.40625 13.625 17.1875l-22.515625 96.023437c-1.027344 4.378906 4.398438 7.300781 7.488282 4.03125l106.804687-112.867187c2.644531-2.792969 6.320313-4.375 10.167969-4.375h121.972656c20.410156 0 36.957031-16.546876 36.957031-36.957032v-155.613281c0-20.40625-16.546875-36.953125-36.957031-36.953125zm0 0" fill="#ffb123"/><path d="m99.527344 241.898438-51.105469 54.007812-12.859375 54.828125c-1.027344 4.378906 4.398438 7.300781 7.492188 4.03125l106.804687-112.867187c2.644531-2.792969 6.320313-4.375 10.164063-4.375h-50.332032c-3.847656 0-7.523437 1.582031-10.164062 4.375zm0 0" fill="#ff901d"/><path d="m282 8h-50.332031c20.410156 0 36.953125 16.546875 36.953125 36.957031v155.609375c0 20.410156-16.542969 36.957032-36.953125 36.957032h50.332031c20.410156 0 36.957031-16.546876 36.957031-36.957032v-155.613281c0-20.40625-16.546875-36.953125-36.957031-36.953125zm0 0" fill="#ff901d"/><path d="m157.972656 192.632812v-13.898437c-19.828125-1.480469-34.464844-12.785156-34.464844-40.023437v-55.777344c0-29.464844 17.417969-40.398438 39.839844-40.398438s40.023438 10.933594 40.023438 40.398438v55.777344c0 27.050781-14.636719 38.542968-34.28125 40.023437v13.898437c0 3.703126-2.777344 5.558594-5.558594 5.558594-2.777344 0-5.558594-1.851562-5.558594-5.558594zm29.835938-109.699218c0-17.976563-9.269532-26.3125-24.460938-26.3125-15.195312 0-24.277344 8.335937-24.277344 26.3125v55.777344c0 15.5625 6.859376 23.71875 18.902344 25.570312v-12.601562c0-3.707032 2.78125-5.375 5.558594-5.375 2.78125 0 5.558594 1.667968 5.558594 5.375v12.414062c11.675781-1.667969 18.71875-9.820312 18.71875-25.386719zm0 0"/><path d="m326.457031 200.566406v-155.613281c0-24.511719-19.945312-44.453125-44.457031-44.453125h-237.542969c-24.515625 0-44.457031 19.941406-44.457031 44.453125v155.613281c0 24.511719 19.941406 44.457032 44.457031 44.457032 1.992188 0 3.851563.894531 5.089844 2.460937 1.238281 1.5625 1.6875 3.574219 1.230469 5.515625l-22.515625 96.019531c-1.242188 5.3125 1.144531 10.617188 5.949219 13.203125 1.8125.976563 3.761718 1.453125 5.6875 1.453125 3.167968 0 6.273437-1.289062 8.605468-3.753906l106.804688-112.867187c1.21875-1.292969 2.9375-2.03125 4.714844-2.03125h121.976562c24.511719 0 44.457031-19.945313 44.457031-44.457032zm-182.046875 36.175782-98.929687 104.546874 19.902343-84.863281c1.507813-6.429687.019532-13.085937-4.082031-18.261719-4.101562-5.175781-10.242187-8.140624-16.84375-8.140624-16.242187 0-29.457031-13.214844-29.457031-29.457032v-155.613281c0-16.238281 13.214844-29.453125 29.457031-29.453125h237.542969c16.242188 0 29.457031 13.214844 29.457031 29.453125v155.613281c0 16.242188-13.214843 29.457032-29.457031 29.457032h-121.976562c-5.878907 0-11.570313 2.449218-15.613282 6.71875zm0 0"/><path d="m467.542969 124.601562h-113.585938c-4.144531 0-7.5 3.355469-7.5 7.5 0 4.140626 3.355469 7.5 7.5 7.5h113.585938c16.242187 0 29.457031 13.210938 29.457031 29.453126v155.609374c0 16.242188-13.214844 29.457032-29.457031 29.457032-6.601563 0-12.742188 2.96875-16.84375 8.144531-4.101563 5.175781-5.589844 11.828125-4.082031 18.257813l19.898437 84.863281-98.925781-104.542969c-4.039063-4.269531-9.730469-6.722656-15.613282-6.722656h-121.976562c-16.242188 0-29.457031-13.214844-29.457031-29.457032v-52.140624c0-4.144532-3.355469-7.5-7.5-7.5-4.140625 0-7.5 3.355468-7.5 7.5v52.140624c0 24.515626 19.945312 44.457032 44.457031 44.457032h121.976562c1.777344 0 3.496094.742187 4.71875 2.03125l106.804688 112.867187c2.332031 2.464844 5.433594 3.753907 8.601562 3.753907 1.925782 0 3.878907-.476563 5.691407-1.453126 4.800781-2.585937 7.191406-7.890624 5.945312-13.199218l-22.515625-96.023438c-.457031-1.941406-.007812-3.953125 1.230469-5.515625 1.242187-1.5625 3.097656-2.460937 5.089844-2.460937 24.515625 0 44.457031-19.941406 44.457031-44.457032v-155.609374c0-24.511719-19.941406-44.453126-44.457031-44.453126zm0 0"/></svg>