<svg height="511pt" viewBox="0 -34 511.99977 511" width="511pt" xmlns="http://www.w3.org/2000/svg"><path d="m340.476562 42.988281c-46.652343-46.648437-122.285156-46.648437-168.933593 0-46.648438 46.648438-46.648438 122.285157 0 168.933594 46.648437 46.648437 122.28125 46.648437 168.933593 0 46.648438-46.648437 46.648438-122.285156 0-168.933594zm0 0" fill="#ffb123"/><path d="m340.480469 42.988281c-29.765625-29.765625-71.332031-40.539062-109.636719-32.320312 21.730469 4.660156 42.414062 15.433593 59.300781 32.320312 46.648438 46.648438 46.648438 122.285157 0 168.933594-16.886719 16.886719-37.570312 27.65625-59.300781 32.320313 38.304688 8.214843 79.871094-2.554688 109.636719-32.320313 46.648437-46.648437 46.648437-122.285156 0-168.933594zm0 0" fill="#ff901d"/><path d="m323.207031 108.242188c.285157-1.660157-.25-3.351563-1.441406-4.542969l-3.28125-3.28125c-2.019531-2.019531-5.296875-2.019531-7.320313 0l-30.894531 30.894531c-7.761719 7.765625-20.351562 7.765625-28.113281 0h-.003906c-7.761719-7.761719-7.761719-20.347656 0-28.109375 10.613281-10.613281 24.417968-24.421875 30.898437-30.898437 2.019531-2.023438 2.019531-5.300782 0-7.320313l-3.28125-3.28125c-1.191406-1.191406-2.882812-1.726563-4.542969-1.441406l-53.339843 9.210937c-5.933594 1.023438-10.660157 5.527344-11.964844 11.40625l-6.207031 47.980469c-1.601563 12.367187-7.25 23.855469-16.066406 32.671875l-31.503907 31.503906c4.394531 6.679688 9.527344 13.015625 15.402344 18.890625s12.210937 11.007813 18.886719 15.402344l31.503906-31.503906c8.816406-8.816407 20.304688-14.46875 32.671875-16.066407l47.984375-6.207031c5.875-1.308593 10.382812-6.03125 11.40625-11.964843zm0 0" fill="#e1effb"/><path d="m467.648438 272.660156-100.136719 67.019532-29.839844-1.675782-1.167969-11.746094c-1.742187-17.484374-15.203125-31.519531-32.601562-33.980468l-79.960938-9.207032c-18.445312-2.609374-36.203125-8.789062-52.28125-18.195312-21.953125-12.84375-46.929687-19.613281-72.363281-19.613281h-57.648437v131.59375l152.363281 57.695312c5.757812 1.628907 11.804687 2.113281 17.714843 1.179688.035157-.003907.070313-.011719.105469-.015625l153.394531-22.113282c11.816407-1.886718 22.925782-6.863281 32.199219-14.425781l99.140625-89.164062c8.898438-7.902344 10.546875-21.179688 3.855469-31.019531-7.324219-10.761719-21.96875-13.59375-32.773437-6.332032zm0 0" fill="#ffe7cf"/><path d="m500.421875 278.992188c-1.664063-2.445313-3.703125-4.476563-5.988281-6.078126l-95.414063 76.554688c-9.277343 7.5625-21.972656 11.742188-33.792969 13.628906l-153.390624 22.109375c-.035157.007813-.074219.011719-.109376.019531-5.910156.933594-11.957031.445313-17.714843-1.179687l-152.363281-57.695313v50.503907l152.363281 57.695312c5.757812 1.628907 11.804687 2.113281 17.714843 1.179688.035157-.003907.070313-.011719.105469-.015625l153.394531-22.113282c11.816407-1.886718 22.925782-6.863281 32.199219-14.425781l99.140625-89.164062c8.898438-7.902344 10.546875-21.183594 3.855469-31.019531zm0 0" fill="#efd5bd"/><path d="m60.035156 415.550781h-44.46875c-4.457031 0-8.066406-3.609375-8.066406-8.0625v-179.457031c0-4.457031 3.609375-8.066406 8.066406-8.066406h44.46875c4.453125 0 8.0625 3.609375 8.0625 8.066406v179.457031c0 4.453125-3.609375 8.0625-8.0625 8.0625zm0 0" fill="#395f80"/><path d="m64.09375 365.214844h-52.585938c-2.214843 0-4.007812-1.792969-4.007812-4.007813v46.277344c0 4.457031 3.609375 8.066406 8.0625 8.066406h44.472656c4.453125 0 8.0625-3.609375 8.0625-8.066406v-46.277344c0 2.214844-1.792968 4.007813-4.003906 4.007813zm0 0" fill="#1d4859"/><path d="m196.824219 194.140625c1.921875 0 3.839843-.730469 5.304687-2.195313l20.945313-20.945312c2.929687-2.929688 2.929687-7.679688 0-10.605469-2.929688-2.929687-7.675781-2.933593-10.609375 0l-20.941406 20.941407c-2.929688 2.929687-2.929688 7.679687 0 10.609374 1.464843 1.464844 3.382812 2.195313 5.300781 2.195313zm0 0"/><path d="m166.820312 217.800781c3.214844 3.175781 6.5625 6.144531 10.019532 8.90625 3.054687 2.441407 6.214844 4.742188 9.46875 6.882813.097656.066406.199218.128906.300781.1875 21 13.714844 45.199219 20.574218 69.402344 20.574218 32.507812 0 65.019531-12.375 89.769531-37.125 23.980469-23.980468 37.183594-55.859374 37.183594-89.773437 0-33.910156-13.203125-65.792969-37.183594-89.769531-23.976562-23.980469-55.859375-37.183594-89.769531-37.183594-33.910157 0-65.792969 13.207031-89.773438 37.183594-23.976562 23.976562-37.183593 55.859375-37.183593 89.769531 0 33.914063 13.207031 65.792969 37.183593 89.773437.195313.191407.386719.382813.582031.574219zm-22.761718-90.347656c0-29.902344 11.644531-58.015625 32.789062-79.164063 21.144532-21.144531 49.261719-32.789062 79.164063-32.789062 29.902343 0 58.019531 11.644531 79.164062 32.789062 21.144531 21.148438 32.792969 49.261719 32.792969 79.164063 0 29.90625-11.648438 58.019531-32.792969 79.164063-21.144531 21.148437-49.261719 32.792968-79.164062 32.792968-19 0-37.277344-4.703125-53.503907-13.554687l24.734376-24.730469c7.601562-7.605469 17.664062-12.554688 28.328124-13.933594l47.984376-6.207031c.222656-.027344.441406-.066406.664062-.117187 8.882812-1.972657 15.621094-9.042969 17.171875-18.007813l9.207031-53.34375c.703125-4.054687-.617187-8.210937-3.527344-11.121094l-3.28125-3.277343c-2.394531-2.394532-5.574218-3.714844-8.960937-3.714844s-6.570313 1.320312-8.964844 3.714844l-30.894531 30.894531c-2.339844 2.335937-5.449219 3.625-8.753906 3.625-3.308594 0-6.414063-1.289063-8.753906-3.628907-2.339844-2.339843-3.628907-5.445312-3.628907-8.75 0-3.308593 1.289063-6.414062 3.625-8.753906l30.898438-30.898437c4.941406-4.941407 4.941406-12.984375 0-17.925781l-3.28125-3.28125c-2.910157-2.910157-7.066407-4.230469-11.121094-3.527344l-53.34375 9.207031c-8.964844 1.550781-16.035156 8.289063-18.007813 17.171875-.050781.21875-.089843.441406-.117187.664062l-6.207031 47.984376c-1.378906 10.664062-6.328125 20.722656-13.929688 28.328124l-24.734375 24.730469c-8.855469-16.226562-13.554687-34.503906-13.554687-53.503906zm48.890625 39.378906c9.933593-9.933593 16.398437-23.078125 18.203125-37.011719l6.152344-47.589843c.730468-2.78125 3-4.875 5.855468-5.371094l52.15625-9.003906.785156.785156-29.253906 29.257813c-5.171875 5.167968-8.019531 12.042968-8.019531 19.359374 0 7.308594 2.851563 14.183594 8.023437 19.359376 5.171876 5.171874 12.046876 8.019531 19.363282 8.019531 7.3125 0 14.1875-2.847657 19.359375-8.019531l29.25-29.253907.785156.789063-9.003906 52.15625c-.492188 2.851562-2.585938 5.121094-5.371094 5.851562l-47.589844 6.15625c-13.929687 1.800782-27.078125 8.265625-37.011719 18.199219l-27.0625 27.0625c-3.648437-2.695313-7.144531-5.625-10.457031-8.757813 0 0-.003906-.003906-.007812-.007812-.464844-.441406-.929688-.886719-1.390625-1.335938-.082032-.082031-.164063-.164062-.246094-.242187-.15625-.15625-.3125-.3125-.46875-.46875-.050781-.046875-.101562-.097656-.148438-.148437-.050781-.046876-.101562-.097657-.152343-.148438-.15625-.160156-.316407-.320312-.472657-.480469-.074218-.074219-.148437-.148437-.222656-.222656-.449218-.460937-.894531-.921875-1.339844-1.390625-.007812-.011719-.019531-.019531-.027343-.03125-3.125-3.308594-6.050781-6.800781-8.75-10.449219zm0 0"/><path d="m506.621094 274.773438c-9.613282-14.128907-28.972656-17.867188-43.144532-8.34375l-98.050781 65.617187-20.925781-1.171875-.535156-5.359375c-2.085938-20.988281-18.128906-37.710937-39.011719-40.664063-.0625-.011718-.128906-.019531-.191406-.027343l-79.863281-9.195313c-17.53125-2.492187-34.167969-8.289062-49.453126-17.230468-23.078124-13.5-49.410156-20.636719-76.148437-20.636719h-23.699219v-9.730469c0-8.582031-6.980468-15.566406-15.5625-15.566406h-44.472656c-8.582031 0-15.5625 6.984375-15.5625 15.566406v179.457031c0 8.582031 6.980469 15.5625 15.5625 15.5625h44.472656c8.582032 0 15.5625-6.980469 15.5625-15.5625v-9.757812l115.757813 43.835937c.203125.078125.410156.144532.617187.203125 4.566406 1.289063 9.128906 1.9375 13.648438 1.9375 2.453125 0 4.898437-.191406 7.324218-.574219.003907 0 .011719-.003906.019532-.003906l153.332031-22.101562c.039063-.003906.074219-.011719.113281-.015625 13.105469-2.09375 25.46875-7.636719 35.757813-16.023438.09375-.078125.183593-.15625.273437-.238281l35.808594-32.203125c3.078125-2.769531 3.332031-7.511719.5625-10.59375-2.769531-3.078125-7.511719-3.332031-10.59375-.558594l-35.667969 32.078125c-8.199219 6.644532-18.03125 11.042969-28.453125 12.714844l-153.335937 22.101562c-.03125.003907-.171875.027344-.207031.03125-4.585938.726563-9.363282.421876-14.207032-.90625l-120.75-45.722656v-82.28125c0-4.140625-3.355468-7.5-7.5-7.5-4.140625 0-7.5 3.359375-7.5 7.5v108.078125c0 .3125-.25.5625-.5625.5625h-44.472656c-.308594 0-.5625-.25-.5625-.5625v-179.457031c0-.3125.253906-.566406.5625-.566406h44.472656c.3125 0 .5625.253906.5625.566406v36.480469c0 4.144531 3.359375 7.5 7.5 7.5 4.144532 0 7.5-3.355469 7.5-7.5v-11.75h23.699219c24.078125 0 47.789063 6.429687 68.574219 18.585937 17.003906 9.945313 35.515625 16.386719 55.019531 19.148438.0625.011718.128906.019531.191406.023437l79.859375 9.195313c13.972656 2.019531 24.695313 13.226562 26.09375 27.28125l.359375 3.601562-141.128906 1.628906c-2.542969-.25-4.839844-1.46875-6.476563-3.433593-2.652343-3.179688-7.382812-3.609375-10.5625-.953125-3.179687 2.652344-3.609374 7.382812-.957031 10.5625 4.222657 5.0625 10.164063 8.179687 16.75 8.777344.246094.019531.488281.035156.734375.046874.101563.003907.207032.003907.308594.003907h.089844l149.347656-1.726563 29.589844 1.660156c1.636718.089844 3.238281-.347656 4.59375-1.253906l100.148437-67.023437c7.355469-4.945313 17.398438-3.003907 22.386719 4.324219 4.558594 6.699218 3.425781 15.808593-2.667969 21.21875l-37.125 33.390624c-3.078125 2.769532-3.332031 7.511719-.5625 10.59375 1.484375 1.644532 3.527344 2.484376 5.578125 2.484376 1.789063 0 3.582032-.636719 5.015625-1.925782l37.089844-33.359375c11.679687-10.367187 13.863281-27.925781 5.074219-40.839843zm0 0"/></svg>