<?xml version="1.0" encoding="iso-8859-1"?>
<!-- Generator: Adobe Illustrator 19.0.0, SVG Export Plug-In . SVG Version: 6.00 Build 0)  -->
<svg xmlns="http://www.w3.org/2000/svg" xmlns:xlink="http://www.w3.org/1999/xlink" version="1.1" id="Capa_1" x="0px" y="0px" viewBox="0 0 512 512" style="enable-background:new 0 0 512 512;" xml:space="preserve" width="512px" height="512px">
<g>
	<g>
		<path d="M211,317c0,8.271-6.729,15-15,15s-15-6.729-15-15h-30c0,24.813,20.187,45,45,45s45-20.187,45-45H211z" fill="#FFFFFF"/>
	</g>
</g>
<g>
	<g>
		<path d="M331,317c0,8.271-6.729,15-15,15s-15-6.729-15-15h-30c0,24.813,20.187,45,45,45s45-20.187,45-45H331z" fill="#FFFFFF"/>
	</g>
</g>
<g>
	<g>
		<path d="M287.82,408.82c-8.5,8.499-19.8,13.18-31.82,13.18s-23.32-4.681-31.82-13.18l-21.213,21.214    C217.133,444.199,235.968,452,256,452s38.867-7.801,53.033-21.967L287.82,408.82z" fill="#FFFFFF"/>
	</g>
</g>
<g>
	<g>
		<path d="M352.827,90.175C358.013,81.303,361,70.997,361,60c0-33.084-26.916-60-60-60h-90c-33.084,0-60,26.916-60,60    c0,10.997,2.987,21.303,8.173,30.175C88.493,93.78,31,153.949,31,227v105c0,33.084,26.916,60,60,60h6.254    c3.324,11.762,7.937,23.147,13.792,33.885C140.01,479.003,195.553,512,256,512c75.387,0,139.127-50.82,158.762-120H421    c33.084,0,60-26.916,60-60V227C481,153.987,423.551,93.783,352.827,90.175z M211,30h90c16.542,0,30,13.458,30,30s-13.458,30-30,30    h-90c-16.542,0-30-13.458-30-30S194.458,30,211,30z M91,347v15c-16.542,0-30-13.458-30-30s13.458-30,30-30V347z M391,347    c0,74.439-60.561,135-135,135c-49.461,0-94.911-27.005-118.614-70.476C126.666,391.864,121,369.552,121,347    c0-10.077,0-94.458,0-105h75.311c14.085,18.694,36.234,30,59.689,30c23.455,0,45.604-11.306,59.689-30H391    C391,252.542,391,336.922,391,347z M421,362v-15v-45c16.542,0,30,13.458,30,30S437.542,362,421,362z M451,280.072    c-8.833-5.123-19.075-8.072-30-8.072v-60H299.052l-4.339,7.455C286.498,233.572,272.025,242,256,242    c-16.025,0-30.498-8.428-38.713-22.545L212.948,212H91v60c-10.925,0-21.167,2.949-30,8.072V227c0-59,47.103-107,105-107    c22.693,0,157.334,0,180,0c57.897,0,105,48,105,107V280.072z" fill="#FFFFFF"/>
	</g>
</g>
<g>
</g>
<g>
</g>
<g>
</g>
<g>
</g>
<g>
</g>
<g>
</g>
<g>
</g>
<g>
</g>
<g>
</g>
<g>
</g>
<g>
</g>
<g>
</g>
<g>
</g>
<g>
</g>
<g>
</g>
</svg>
