<?xml version="1.0"?>
<svg xmlns="http://www.w3.org/2000/svg" height="512px" version="1.1" viewBox="-29 0 511 512" width="512px">
<g id="surface1">
<path d="M 452.675781 212.121094 C 451.625 175.765625 439.28125 140.726562 417.910156 113.457031 C 396.058594 85.578125 367.015625 69.585938 338.222656 69.585938 C 308.371094 69.585938 283.050781 83.871094 265 110.898438 C 248.460938 135.660156 238.792969 170.59375 237.039062 211.921875 C 233.558594 294.101562 267.917969 346.648438 269.382812 348.84375 L 273.835938 355.523438 L 432.890625 355.523438 L 436.121094 344.878906 C 436.882812 342.371094 454.710938 282.710938 452.675781 212.121094 Z M 290.511719 325.519531 C 282.433594 310.269531 264.617188 269.796875 267.015625 213.1875 C 267.273438 207.066406 267.722656 201.15625 268.347656 195.453125 L 348.5 195.453125 L 348.5 165.453125 L 273.75 165.453125 C 284.640625 123.90625 307.613281 99.585938 338.226562 99.585938 C 380.71875 99.585938 420.976562 153.636719 422.6875 212.984375 C 422.789062 216.519531 422.832031 220.023438 422.828125 223.5 L 336.269531 223.5 L 336.269531 253.5 L 421.648438 253.5 C 419.222656 285.179688 413.640625 311.589844 410.230469 325.519531 Z M 290.511719 325.519531 " style=" fill-rule:nonzero;fill-opacity:1;" stroke="#ab9b81" fill="#ab9b81"/>
<path d="M 432.546875 381.035156 L 273.167969 381.035156 L 272.207031 395.003906 C 272.03125 397.507812 268.335938 456.714844 299.355469 489.945312 C 313.019531 504.578125 330.890625 512 352.484375 512 C 374.0625 512 391.964844 504.589844 405.699219 489.972656 C 436.890625 456.769531 433.578125 397.605469 433.425781 395.101562 Z M 383.835938 469.429688 C 375.886719 477.886719 365.632812 482 352.484375 482 C 339.386719 482 329.195312 477.917969 321.335938 469.523438 C 307.488281 454.738281 303.105469 428.730469 302.164062 411.035156 L 403.390625 411.035156 C 402.355469 428.671875 397.820312 454.546875 383.835938 469.429688 Z M 383.835938 469.429688 " style=" fill-rule:nonzero;fill-opacity:1;" stroke="#ab9b81" fill="#ab9b81"/>
<path d="M 369.300781 165.453125 L 401.503906 165.453125 L 401.503906 195.453125 L 369.300781 195.453125 Z M 369.300781 165.453125 " style=" fill-rule:nonzero;fill-opacity:1;" stroke="#ab9b81" fill="#ab9b81"/>
<path d="M 282.300781 223.5 L 314.503906 223.5 L 314.503906 253.5 L 282.300781 253.5 Z M 282.300781 223.5 " style=" fill-rule:nonzero;fill-opacity:1;" stroke="#ab9b81" fill="#ab9b81"/>
<path d="M 188.339844 41.3125 C 170.285156 14.285156 144.964844 0 115.113281 0 C 86.320312 0 57.277344 15.992188 35.425781 43.871094 C 14.058594 71.140625 1.710938 106.179688 0.660156 142.535156 C -1.375 213.125 16.453125 272.785156 17.214844 275.289062 L 20.445312 285.9375 L 179.5 285.9375 L 183.953125 279.257812 C 185.414062 277.058594 219.777344 224.515625 216.296875 142.332031 C 214.546875 101.007812 204.878906 66.074219 188.339844 41.3125 Z M 162.785156 255.9375 L 43.097656 255.9375 C 39.683594 242.023438 34.097656 215.648438 31.679688 183.914062 L 117.070312 183.914062 L 117.070312 153.914062 L 30.507812 153.914062 C 30.507812 150.441406 30.550781 146.933594 30.652344 143.402344 C 32.363281 84.050781 72.621094 30 115.113281 30 C 145.722656 30 168.695312 54.320312 179.589844 95.867188 L 104.835938 95.867188 L 104.835938 125.867188 L 184.988281 125.867188 C 185.613281 131.570312 186.0625 137.484375 186.320312 143.601562 C 188.703125 199.789062 170.851562 240.5625 162.785156 255.9375 Z M 162.785156 255.9375 " style=" fill-rule:nonzero;fill-opacity:1;" stroke="#ab9b81" fill="#ab9b81"/>
<path d="M 180.171875 311.449219 L 20.792969 311.449219 L 19.914062 325.515625 C 19.757812 328.015625 16.445312 387.183594 47.636719 420.382812 C 61.371094 435 79.277344 442.414062 100.851562 442.414062 C 122.445312 442.414062 140.320312 434.992188 153.980469 420.355469 C 185 387.125 181.304688 327.921875 181.132812 325.417969 Z M 132.003906 399.9375 C 124.140625 408.332031 113.953125 412.414062 100.855469 412.414062 C 87.730469 412.414062 77.492188 408.320312 69.550781 399.894531 C 55.613281 385.109375 51.046875 359.140625 49.980469 341.449219 L 151.171875 341.449219 C 150.234375 359.144531 145.847656 385.152344 132.003906 399.9375 Z M 132.003906 399.9375 " style=" fill-rule:nonzero;fill-opacity:1;" stroke="#ab9b81" fill="#ab9b81"/>
<path d="M 51.835938 95.867188 L 84.035156 95.867188 L 84.035156 125.867188 L 51.835938 125.867188 Z M 51.835938 95.867188 " style=" fill-rule:nonzero;fill-opacity:1;" stroke="#ab9b81" fill="#ab9b81"/>
<path d="M 138.835938 153.914062 L 171.035156 153.914062 L 171.035156 183.914062 L 138.835938 183.914062 Z M 138.835938 153.914062 " style=" fill-rule:nonzero;fill-opacity:1;" stroke="#ab9b81" fill="#ab9b81"/>
</g>
</svg>
