<?xml version="1.0"?>
<svg xmlns="http://www.w3.org/2000/svg" height="512px" version="1.1" viewBox="-28 0 512 512" width="512px">
<g id="surface1">
<path d="M 263.234375 195.648438 L 228.222656 135 L 193.214844 195.648438 L 123.523438 195.648438 L 158.363281 256 L 123.523438 316.351562 L 193.214844 316.351562 L 228.222656 377 L 263.234375 316.351562 L 332.925781 316.351562 L 298.085938 256 L 332.925781 195.648438 Z M 280.964844 286.351562 L 245.914062 286.351562 L 228.222656 317 L 210.535156 286.351562 L 175.484375 286.351562 L 193.003906 256 L 175.484375 225.648438 L 210.535156 225.648438 L 228.222656 195 L 245.914062 225.648438 L 280.964844 225.648438 L 263.445312 256 Z M 280.964844 286.351562 " style=" fill-rule:nonzero;fill-opacity:1;" stroke="#ab9b81" fill="#ab9b81"/>
<path d="M 454.875 349.550781 C 451.792969 338.339844 444.535156 329.011719 434.433594 323.261719 C 425.195312 318.011719 414.59375 316.328125 404.285156 318.441406 L 368.234375 256 L 404.804688 192.660156 C 407.324219 193.109375 409.84375 193.328125 412.363281 193.328125 C 419.894531 193.328125 427.324219 191.359375 434.023438 187.488281 C 444.09375 181.691406 451.292969 172.308594 454.304688 161.089844 C 457.3125 149.859375 455.773438 138.140625 449.972656 128.078125 C 444.164062 118.011719 434.785156 110.808594 423.5625 107.800781 C 419.8125 106.789062 416.003906 106.300781 412.222656 106.300781 C 404.683594 106.300781 397.253906 108.269531 390.554688 112.128906 C 381.542969 117.328125 374.8125 125.398438 371.355469 135.089844 L 298.425781 135.089844 L 261.625 71.351562 C 267.925781 63.800781 271.722656 54.089844 271.722656 43.5 C 271.722656 19.511719 252.214844 0 228.222656 0 C 204.234375 0 184.722656 19.511719 184.722656 43.5 C 184.722656 54.089844 188.523438 63.800781 194.824219 71.351562 L 158.023438 135.089844 L 84.035156 135.089844 C 80.433594 125.808594 73.804688 118.109375 65.035156 113.121094 C 54.933594 107.371094 43.195312 105.898438 31.996094 108.980469 C 20.792969 112.058594 11.453125 119.320312 5.714844 129.421875 C -0.0351562 139.519531 -1.503906 151.25 1.574219 162.449219 C 4.65625 173.660156 11.914062 182.988281 22.015625 188.738281 C 28.65625 192.519531 36.003906 194.449219 43.453125 194.441406 C 46.355469 194.441406 49.273438 194.148438 52.164062 193.558594 L 88.214844 256 L 51.65625 319.328125 C 41.605469 317.558594 31.363281 319.351562 22.425781 324.511719 C 12.355469 330.308594 5.15625 339.691406 2.144531 350.910156 C -0.867188 362.140625 0.675781 373.859375 6.472656 383.921875 C 12.285156 393.988281 21.664062 401.191406 32.882812 404.199219 C 36.632812 405.210938 40.445312 405.710938 44.222656 405.710938 C 51.765625 405.710938 59.195312 403.730469 65.894531 399.871094 C 74.90625 394.671875 81.632812 386.601562 85.09375 376.910156 L 158.023438 376.910156 L 194.824219 440.648438 C 188.523438 448.199219 184.722656 457.910156 184.722656 468.5 C 184.722656 492.488281 204.234375 512 228.222656 512 C 252.214844 512 271.722656 492.488281 271.722656 468.5 C 271.722656 457.910156 267.925781 448.199219 261.625 440.648438 L 298.425781 376.910156 L 372.414062 376.910156 C 376.015625 386.191406 382.644531 393.890625 391.414062 398.878906 C 398.0625 402.660156 405.414062 404.589844 412.863281 404.589844 C 416.722656 404.589844 420.625 404.070312 424.453125 403.019531 C 435.65625 399.941406 444.996094 392.679688 450.734375 382.578125 C 456.484375 372.480469 457.953125 360.75 454.875 349.550781 Z M 424.664062 367.75 C 422.882812 370.878906 419.984375 373.140625 416.503906 374.089844 C 413.023438 375.050781 409.382812 374.589844 406.253906 372.808594 C 403.113281 371.03125 400.863281 368.128906 399.914062 364.648438 C 398.953125 361.171875 399.414062 357.53125 401.195312 354.398438 C 402.972656 351.261719 405.875 349.011719 409.355469 348.058594 C 410.542969 347.730469 411.746094 347.570312 412.953125 347.570312 C 415.265625 347.570312 417.542969 348.171875 419.605469 349.339844 C 422.734375 351.121094 424.996094 354.019531 425.945312 357.5 C 426.90625 360.96875 426.445312 364.621094 424.664062 367.75 Z M 425.335938 153.308594 C 424.394531 156.789062 422.164062 159.699219 419.035156 161.511719 C 415.914062 163.308594 412.273438 163.789062 408.792969 162.851562 C 405.3125 161.921875 402.40625 159.679688 400.59375 156.558594 C 398.792969 153.441406 398.3125 149.800781 399.253906 146.308594 C 400.183594 142.828125 402.425781 139.921875 405.542969 138.121094 C 408.664062 136.320312 412.304688 135.839844 415.792969 136.769531 C 419.273438 137.710938 422.183594 139.941406 423.984375 143.070312 C 425.785156 146.191406 426.265625 149.828125 425.335938 153.308594 Z M 241.722656 43.5 C 241.722656 50.941406 235.664062 57 228.222656 57 C 220.785156 57 214.722656 50.941406 214.722656 43.5 C 214.722656 36.058594 220.785156 30 228.222656 30 C 235.664062 30 241.722656 36.058594 241.722656 43.5 Z M 36.84375 162.660156 C 33.714844 160.878906 31.453125 157.980469 30.503906 154.5 C 29.542969 151.03125 30.003906 147.378906 31.785156 144.25 C 33.5625 141.121094 36.464844 138.859375 39.945312 137.910156 C 41.132812 137.578125 42.34375 137.421875 43.542969 137.421875 C 45.855469 137.421875 48.132812 138.019531 50.195312 139.191406 C 53.335938 140.96875 55.585938 143.871094 56.535156 147.351562 C 57.496094 150.828125 57.035156 154.46875 55.253906 157.601562 C 53.472656 160.738281 50.574219 162.988281 47.09375 163.941406 C 43.625 164.898438 39.984375 164.441406 36.84375 162.660156 Z M 31.113281 358.691406 C 31.585938 356.949219 32.375 355.351562 33.445312 353.960938 C 34.503906 352.578125 35.84375 351.398438 37.414062 350.488281 C 39.496094 349.289062 41.792969 348.679688 44.132812 348.679688 C 45.3125 348.679688 46.496094 348.839844 47.65625 349.148438 C 51.132812 350.078125 54.042969 352.320312 55.855469 355.441406 C 57.65625 358.558594 58.132812 362.199219 57.195312 365.691406 C 56.265625 369.171875 54.023438 372.078125 50.90625 373.878906 C 47.785156 375.679688 44.144531 376.160156 40.65625 375.230469 C 37.175781 374.289062 34.265625 372.058594 32.464844 368.929688 C 30.664062 365.808594 30.183594 362.171875 31.113281 358.691406 Z M 214.722656 468.5 C 214.722656 461.058594 220.785156 455 228.222656 455 C 235.664062 455 241.722656 461.058594 241.722656 468.5 C 241.722656 475.941406 235.664062 482 228.222656 482 C 220.785156 482 214.722656 475.941406 214.722656 468.5 Z M 281.105469 346.910156 L 235.65625 425.640625 C 233.246094 425.21875 230.753906 425 228.222656 425 C 225.695312 425 223.203125 425.21875 220.792969 425.640625 L 175.34375 346.910156 L 84.894531 346.910156 C 84.0625 344.699219 83.042969 342.539062 81.835938 340.449219 C 80.585938 338.289062 79.175781 336.261719 77.613281 334.371094 L 122.855469 256 L 77.722656 177.820312 C 79.042969 176.128906 80.253906 174.328125 81.335938 172.441406 C 82.683594 170.070312 83.792969 167.609375 84.65625 165.089844 L 175.34375 165.089844 L 220.792969 86.359375 C 223.203125 86.78125 225.695312 87 228.222656 87 C 230.753906 87 233.246094 86.78125 235.65625 86.359375 L 281.105469 165.089844 L 371.554688 165.089844 C 372.382812 167.300781 373.40625 169.460938 374.613281 171.550781 C 375.863281 173.710938 377.273438 175.738281 378.835938 177.628906 L 333.59375 256 L 378.722656 334.179688 C 377.40625 335.871094 376.195312 337.671875 375.113281 339.558594 C 373.765625 341.929688 372.65625 344.390625 371.792969 346.910156 Z M 281.105469 346.910156 " style=" fill-rule:nonzero;fill-opacity:1;" stroke="#ab9b81" fill="#ab9b81"/>
</g>
</svg>
