<svg height="467pt" viewBox="-91 0 467 467.12" width="467pt" xmlns="http://www.w3.org/2000/svg"><path d="m247.246094 229.261719-72.898438-68.160157c18.667969-10.320312 31.722656-30.0625 32.28125-52.375.90625-30.785156-21.148437-57.46875-51.554687-62.375v-26.351562h22.089843c5.523438 0 10-4.476562 10-10s-4.476562-10-10-10h-64.171874c-5.523438 0-10 4.476562-10 10s4.476562 10 10 10h22.082031v35.5625c0 5.519531 4.476562 10 10 10 11.234375-.058594 22.007812 4.457031 29.84375 12.503906 7.835937 8.046875 12.0625 18.933594 11.710937 30.164063-.492187 19.53125-15.164062 36.140625-33.902344 39.734375-5.601562-1.355469-11.429687-1.464844-17.078124-.320313-18.886719-4.304687-32.25-21.148437-32.140626-40.515625 0-5.523437-4.476562-10-10-10-5.523437 0-10 4.476563-10 10-.066406 21.757813 11.382813 41.925782 30.097657 53.023438l-73.84375 69.042968c-21.964844.1875-39.6757815 18.027344-39.7031252 39.992188v157.933594c.0273437 22.078125 17.9218752 39.972656 40.0000002 40h204.824218c22.078126-.027344 39.972657-17.921875 40-40v-157.933594c-.027343-21.164062-16.511718-38.652344-37.636718-39.925781zm17.636718 39.921875v60h-112.40625v-80h92.40625c11.039063.015625 19.988282 8.960937 20 20.003906zm-119.820312-100.488282c.539062 0 1.078125-.007812 1.621094-.019531 1.492187-.039062 2.96875-.148437 4.4375-.300781 2.730468 1.128906 5.179687 2.851562 7.160156 5.042969.183594.199219.375.394531.578125.585937l59.019531 55.179688h-148.820312l59.023437-55.179688c.199219-.1875.394531-.382812.574219-.585937 2.15625-2.382813 4.855469-4.203125 7.867188-5.3125 2.832031.390625 5.683593.585937 8.539062.589843zm-104.992188 80.492188h92.40625v80h-112.40625v-60c.011719-11.039062 8.957032-19.988281 20-20zm-20 177.933594v-77.933594h112.40625v97.933594h-92.40625c-11.042968-.011719-19.988281-8.957032-20-20zm224.8125 20h-92.40625v-97.933594h112.40625v77.933594c-.015624 11.042968-8.960937 19.988281-20 20zm0 0"/></svg>