<?xml version="1.0" encoding="iso-8859-1"?>
<!-- Generator: Adobe Illustrator 19.0.0, SVG Export Plug-In . SVG Version: 6.00 Build 0)  -->
<svg xmlns="http://www.w3.org/2000/svg" xmlns:xlink="http://www.w3.org/1999/xlink" version="1.1" id="Capa_1" x="0px" y="0px" viewBox="0 0 512 512" style="enable-background:new 0 0 512 512;" xml:space="preserve" width="512px" height="512px">
<g>
	<g>
		<path d="M343.071,434.93c-3.9-3.91-10.24-3.91-14.14,0c-3.91,3.9-3.91,10.24,0,14.14c3.9,3.91,10.24,3.91,14.14,0    C346.981,445.17,346.981,438.83,343.071,434.93z" fill="#FFFFFF"/>
	</g>
</g>
<g>
	<g>
		<path d="M496.372,302.273c-0.197-0.152-66.044-35.903-79.346-42.727c-11.698-19.343-48.468-80.169-48.472-80.177    c-6.611-10.915-18.048-18.002-30.76-19.161c-1.086-0.195-1.809-0.188-2.572-0.128c-32.621-0.016-120.977-0.061-159.217-0.08    c-0.24-0.02-0.408,0.006-0.611,0.019c-0.098,0.006-0.195,0.02-0.293,0.027c-0.069,0.006-0.137,0.011-0.206,0.019    c-12.945,0.95-24.674,8.13-31.453,19.312c0,0-36.769,60.826-48.467,80.169c-18.609,9.545-71.565,38.745-77.553,41.62    c-0.635,0.305-1.236,0.676-1.793,1.107c-19.359,14.986-20.795,43.122-3.913,60.004c12.871,12.884,32.813,15.445,48.512,6.212    c1.658-0.978,34.737-22.019,55.063-33.284c15.309-8.491,29.188-19.447,41.261-32.577c5.124-5.589,6.767-7.363,9.449-10.285v83.445    l-87.327,43.165c-11.933,5.891-21.046,16.574-25.002,29.307c-3.962,12.739-2.512,26.709,3.981,38.332    c8.9,15.91,25.183,25.408,43.558,25.408h309.58c18.035,0,34.165-9.229,43.147-24.688c6.759-11.638,8.405-25.713,4.521-38.605    c-3.877-12.924-13.026-23.763-25.106-29.741l-87.352-43.177v-83.451c3.359,3.655,6.652,7.24,9.757,10.62    c11.859,12.904,25.638,23.754,40.955,32.25c20.409,11.312,53.352,32.275,55.08,33.293c15.626,9.188,35.574,6.708,48.489-6.219    C517.218,345.344,515.671,317.212,496.372,302.273z M226.001,179.925l60,0.03V210c0,16.542-13.458,30-30,30    c-16.569,0-30-13.429-30-30V179.925z M186.001,179.905l20,0.01V210c0,27.621,22.373,50,50,50c27.57,0,50-22.43,50-50v-30.035    l20,0.01V270v102h-140C186.001,366.898,186.001,181.624,186.001,179.905z M141.8,289.11c-0.022,0.024-0.041,0.051-0.063,0.076    c-10.59,11.5-22.75,21.099-36.144,28.527c-20.449,11.334-53.52,32.322-55.521,33.546c-7.824,4.6-17.778,3.318-24.21-3.121    c-8.091-8.09-7.944-21.688,1.314-29.489c10.174-5.166,63.756-34.745,79.345-42.535c1.691-0.845,3.107-2.152,4.086-3.77    c9.63-15.919,49.947-82.612,49.946-82.612c1.427-2.355,3.292-4.352,5.448-5.922v78.965    C165.823,262.966,141.892,289.01,141.8,289.11z M226.001,492h-40c-11.028,0-20-8.972-20-20s8.972-20,20-20h40V492z     M424.486,436.893c7.126,3.526,12.526,9.927,14.819,17.572c2.297,7.622,1.327,15.934-2.661,22.801    C431.204,486.63,421.78,492,410.791,492h-164.79v-40h50c5.522,0,10-4.477,10-10s-4.478-10-10-10h-110c-22.056,0-40,17.944-40,40    c0,7.283,1.966,14.112,5.381,20H101.21c-11.195,0-20.709-5.53-26.1-15.167c-3.83-6.855-4.683-15.104-2.34-22.636    c2.338-7.525,7.717-13.834,14.761-17.312L178.338,392h155.326L424.486,436.893z M486.136,348.144    c-6.43,6.435-16.383,7.716-24.143,3.155c-2.213-1.346-34.889-22.113-55.582-33.583c-13.435-7.451-25.522-16.97-35.925-28.289    c-7.594-8.268-16.957-18.453-24.485-26.644v-78.934c2.164,1.556,4.027,3.539,5.442,5.874c0,0,40.321,66.702,49.951,82.623    c0.979,1.618,2.396,2.924,4.087,3.77c15.487,7.739,69.261,37.414,79.345,42.535C494.11,326.475,494.208,340.073,486.136,348.144z" fill="#FFFFFF"/>
	</g>
</g>
<g>
	<g>
		<path d="M256.001,0c-38.598,0-70,31.402-70,70s31.402,70,70,70c38.597,0,70-31.402,70-70S294.599,0,256.001,0z M256.001,120    c-27.57,0-50-22.43-50-50s22.43-50,50-50s50,22.43,50,50S283.571,120,256.001,120z" fill="#FFFFFF"/>
	</g>
</g>
<g>
</g>
<g>
</g>
<g>
</g>
<g>
</g>
<g>
</g>
<g>
</g>
<g>
</g>
<g>
</g>
<g>
</g>
<g>
</g>
<g>
</g>
<g>
</g>
<g>
</g>
<g>
</g>
<g>
</g>
</svg>
