<?xml version="1.0"?>
<svg xmlns="http://www.w3.org/2000/svg" viewBox="-11 1 511 511.99863" width="512px" height="512px"><path d="m481.546875 180.421875c-10.738281-25.925781-30.933594-46.121094-56.859375-56.859375l-22.765625-9.429688 85.367187-35.359374-5.742187-13.859376c-10.738281-25.925781-30.929687-46.121093-56.859375-56.859374-25.925781-10.738282-54.484375-10.738282-80.414062 0l-56.21875 23.289062c-17.242188 7.140625-31.925782 18.484375-43.003907 32.894531-11.074219-14.410156-25.761719-25.753906-43.003906-32.894531l-56.21875-23.289062c-25.929687-10.738282-54.484375-10.738282-80.414063 0-25.925781 10.738281-46.121093 30.933593-56.859374 56.859374l-5.742188 13.855469 85.367188 35.363281-22.765626 9.429688c-25.925781 10.738281-46.121093 30.933594-56.859374 56.859375-10.738282 25.925781-10.738282 54.484375 0 80.414063l5.738281 13.855468 177.777343-73.636718-22.121093 310.945312h150.203125l-22.121094-310.945312 177.777344 73.640624 5.738281-13.859374c10.742187-25.929688 10.742187-54.484376 0-80.414063zm-182.011719-121.363281 56.21875-23.289063c18.527344-7.675781 38.929688-7.675781 57.453125 0 13.820313 5.722657 25.355469 15.203125 33.511719 27.339844l-84.253906 34.898437c-36.027344-12.429687-74.847656-4.015624-102.414063 19.441407v-20.34375c7.910157-17.28125 21.828125-30.738281 39.484375-38.046875zm-222.640625-23.289063c18.523438-7.671875 38.929688-7.671875 57.453125 0l56.222656 23.289063c17.652344 7.308594 31.570313 20.765625 39.480469 38.046875v20.339843c-27.5625-23.453124-66.382812-31.871093-102.414062-19.4375l-84.253907-34.898437c8.15625-12.136719 19.695313-21.617187 33.511719-27.339844zm-40.625 156.132813c7.671875-18.523438 22.101563-32.953125 40.625-40.625l56.21875-23.289063c9.367188-3.875 19.074219-5.710937 28.628907-5.710937 24.628906 0 48.246093 12.195312 62.320312 33.058594l-192.15625 79.59375c-2.816406-14.347657-1.363281-29.210938 4.363281-43.027344zm173.261719 186.445312h71.039062l2.621094 36.828125h-76.277344zm2.136719-29.996094 2.617187-36.828124h61.53125l2.621094 36.828124zm62.015625-66.824218h-57.261719l2.617187-36.828125h52.023438zm-71.523438 200.472656 2.617188-36.824219h80.546875l2.617187 36.824219zm66.769532-267.296875h-47.753907l1.882813-26.484375 21.992187-9.109375 21.996094 9.113281zm189.265624 20.226563-192.15625-79.59375c19.535157-28.957032 57.449219-41.222657 90.949219-27.347657l56.21875 23.289063c18.527344 7.671875 32.953125 22.101562 40.628907 40.625 5.722656 13.816406 7.175781 28.679687 4.359374 43.027344zm0 0" fill="#FFFFFF"/></svg>
