<?xml version="1.0"?>
<svg xmlns="http://www.w3.org/2000/svg" height="512px" version="1.1" viewBox="0 -26 511.99945 511" width="512px">
<g id="surface1">
<path d="M 511.488281 429.039062 C 510.105469 423.875 476.667969 302.007812 395.824219 255.339844 C 380.769531 246.644531 363.75 241.898438 346.472656 241.53125 C 354.585938 226.800781 359.207031 209.886719 359.207031 191.910156 C 359.207031 98.566406 270.390625 8.675781 266.605469 4.894531 C 260.75 -0.964844 251.25 -0.964844 245.394531 4.894531 C 241.613281 8.675781 152.792969 98.566406 152.792969 191.910156 C 152.792969 209.886719 157.414062 226.800781 165.527344 241.53125 C 148.25 241.898438 131.230469 246.644531 116.175781 255.339844 C 35.335938 302.007812 1.898438 423.875 0.515625 429.039062 C -1.628906 437.042969 3.117188 445.269531 11.121094 447.410156 C 12.933594 447.898438 56.164062 459.320312 108.089844 459.320312 C 152.949219 459.320312 190.390625 450.832031 219.382812 434.09375 C 234.640625 425.285156 247.117188 413.011719 256 398.351562 C 264.886719 413.011719 277.359375 425.285156 292.617188 434.09375 C 321.609375 450.832031 359.054688 459.320312 403.910156 459.320312 C 455.832031 459.320312 499.066406 447.898438 500.882812 447.410156 C 504.722656 446.382812 508 443.867188 509.988281 440.421875 C 511.980469 436.976562 512.519531 432.882812 511.488281 429.039062 Z M 256.011719 37.6875 C 274.792969 59.203125 313.03125 107.902344 325.3125 160.144531 C 324.957031 159.683594 324.625 159.261719 324.347656 158.921875 C 324.214844 158.757812 324.078125 158.597656 323.953125 158.429688 C 323.921875 158.378906 323.886719 158.328125 323.851562 158.28125 L 322.554688 156.378906 C 322.078125 155.679688 321.542969 155.023438 320.957031 154.414062 L 319.339844 152.738281 C 319.261719 152.660156 319.226562 152.625 319.148438 152.546875 C 318.957031 152.339844 318.78125 152.121094 318.601562 151.90625 C 317.9375 151.113281 317.039062 150.039062 315.84375 148.902344 C 311.046875 144.246094 305.464844 140.105469 298.285156 135.882812 C 298.078125 135.757812 297.863281 135.640625 297.648438 135.527344 C 291.757812 132.4375 285.238281 130.082031 277.128906 128.109375 C 276.882812 128.050781 276.628906 127.996094 276.378906 127.949219 C 268.800781 126.515625 261.449219 126.566406 255.257812 126.808594 C 254.628906 126.832031 254.003906 126.894531 253.386719 126.996094 C 247.390625 127.988281 240.332031 129.386719 233.4375 132.210938 C 233.183594 132.316406 232.933594 132.425781 232.6875 132.542969 C 225.632812 135.898438 220.160156 139.246094 215.46875 143.074219 C 215.25 143.257812 215.03125 143.441406 214.824219 143.632812 C 209.320312 148.671875 205.253906 153.226562 202.035156 157.957031 C 201.128906 159.265625 200.507812 160.457031 200.089844 161.257812 C 200.03125 161.367188 199.972656 161.484375 199.914062 161.59375 C 199.910156 161.601562 199.90625 161.605469 199.902344 161.609375 L 198.875 163.1875 C 198.246094 164.152344 197.726562 165.191406 197.335938 166.28125 C 197.226562 166.582031 197.109375 166.871094 196.988281 167.15625 C 196.949219 167.246094 196.910156 167.339844 196.875 167.429688 L 196.785156 167.59375 C 196.289062 168.523438 195.457031 170.074219 194.828125 172.128906 C 194.78125 172.289062 194.734375 172.449219 194.691406 172.609375 C 194.53125 173.203125 194.351562 173.738281 194.140625 174.246094 C 193.859375 174.925781 193.628906 175.621094 193.453125 176.332031 L 193.207031 177.300781 C 192.035156 181.945312 190.714844 187.164062 190.769531 193.050781 C 190.523438 195.613281 190.75 197.757812 190.90625 199.28125 C 190.929688 199.511719 190.960938 199.738281 190.976562 199.964844 C 190.855469 202.726562 191.414062 204.941406 191.734375 206.105469 C 191.75 206.203125 191.769531 206.300781 191.785156 206.398438 C 191.871094 207.355469 192.042969 209.074219 192.683594 211.089844 C 195.289062 220.589844 199.867188 229.378906 205.941406 236.53125 C 206.046875 236.65625 206.15625 236.78125 206.269531 236.902344 C 220.480469 252.5625 236.792969 255.671875 243.230469 256.277344 C 249.175781 256.882812 253.496094 256.554688 255.675781 256.347656 C 255.695312 256.347656 255.71875 256.347656 255.738281 256.347656 C 255.769531 256.347656 255.796875 256.351562 255.828125 256.351562 C 255.867188 256.351562 255.90625 256.347656 255.945312 256.347656 C 256.011719 256.34375 256.074219 256.347656 256.140625 256.34375 C 256.234375 256.34375 256.324219 256.328125 256.417969 256.324219 C 256.761719 256.308594 257.105469 256.289062 257.449219 256.253906 C 257.625 256.230469 257.796875 256.210938 257.96875 256.183594 C 258.121094 256.164062 258.269531 256.152344 258.421875 256.125 C 258.605469 256.09375 258.78125 256.050781 258.957031 256.011719 C 259.058594 255.988281 259.160156 255.972656 259.261719 255.949219 C 259.675781 255.851562 260.082031 255.746094 260.484375 255.613281 C 262.570312 255.167969 266.742188 254.199219 271.929688 251.964844 C 283.074219 247.382812 292.816406 237.753906 298.011719 226.179688 C 298.078125 226.03125 298.140625 225.886719 298.203125 225.738281 C 300.902344 219.167969 302.199219 211.835938 301.960938 204.492188 C 301.976562 202.882812 301.753906 201.507812 301.523438 200.496094 C 301.460938 199.207031 301.230469 197.441406 300.496094 195.484375 C 300.289062 194.4375 299.933594 192.90625 299.167969 191.160156 C 298.042969 187.695312 296.328125 185.011719 295.125 183.121094 C 294.875 182.734375 294.628906 182.351562 294.40625 181.972656 C 293.949219 181.195312 293.421875 180.460938 292.835938 179.777344 C 291.90625 178.355469 290.898438 177.292969 290.097656 176.554688 C 289.179688 175.386719 288.089844 174.355469 286.863281 173.507812 C 286.335938 172.996094 285.628906 172.375 284.753906 171.757812 C 281.882812 169.679688 279.097656 168.355469 276.851562 167.28125 L 275.988281 166.871094 C 275.429688 166.601562 274.851562 166.363281 274.261719 166.164062 C 270.988281 165.058594 267.9375 164.636719 265.710938 164.324219 L 264.664062 164.179688 C 264.007812 164.078125 263.347656 164.027344 262.683594 164.015625 C 259.832031 163.957031 257.402344 164.363281 255.625 164.644531 C 255.152344 164.71875 254.691406 164.800781 254.242188 164.847656 C 253.363281 164.941406 252.492188 165.113281 251.640625 165.363281 C 237.394531 169.515625 227.496094 182.320312 228.101562 195.8125 C 228.472656 204.085938 235.480469 210.453125 243.757812 210.125 C 251.714844 209.765625 257.941406 203.273438 258.085938 195.421875 C 258.261719 195.171875 258.640625 194.757812 259.335938 194.429688 C 259.683594 194.375 260.015625 194.324219 260.332031 194.273438 C 260.773438 194.203125 261.324219 194.117188 261.738281 194.0625 C 262.574219 194.179688 263.46875 194.308594 264.109375 194.445312 C 265.027344 194.882812 265.953125 195.324219 266.621094 195.714844 C 266.964844 196.046875 267.382812 196.421875 267.871094 196.816406 C 268.167969 197.140625 268.453125 197.433594 268.722656 197.695312 C 268.933594 197.976562 269.148438 198.253906 269.371094 198.527344 C 269.523438 198.769531 269.675781 199.007812 269.832031 199.25 C 270.105469 199.6875 270.464844 200.246094 270.664062 200.597656 C 270.832031 201.207031 271.035156 201.804688 271.277344 202.386719 C 271.363281 202.800781 271.476562 203.285156 271.628906 203.824219 C 271.664062 204.144531 271.710938 204.480469 271.769531 204.828125 C 271.832031 205.285156 271.910156 205.699219 271.992188 206.074219 C 272.007812 208.882812 271.503906 211.695312 270.546875 214.113281 C 267.820312 219.992188 262.78125 223.304688 260.472656 224.242188 C 260.363281 224.285156 260.25 224.332031 260.140625 224.378906 C 257.25 225.636719 255.097656 226.09375 253.8125 226.367188 C 253.761719 226.378906 253.71875 226.390625 253.667969 226.40625 C 253.523438 226.417969 253.390625 226.429688 253.273438 226.441406 C 251.953125 226.574219 249.738281 226.789062 246.226562 226.429688 C 246.175781 226.421875 246.121094 226.417969 246.070312 226.414062 C 243.832031 226.207031 236.003906 224.910156 228.65625 216.925781 C 225.472656 213.121094 223.046875 208.367188 221.617188 203.144531 C 221.566406 202.613281 221.484375 201.917969 221.332031 201.121094 C 221.230469 200.441406 221.101562 199.839844 220.980469 199.335938 C 220.949219 198.105469 220.839844 197.035156 220.75 196.1875 C 220.730469 195.996094 220.707031 195.804688 220.6875 195.613281 C 220.792969 194.769531 220.820312 193.917969 220.78125 193.070312 C 220.679688 191.046875 221.464844 187.941406 222.296875 184.65625 L 222.3125 184.59375 C 222.6875 183.613281 223.027344 182.601562 223.335938 181.574219 C 223.671875 180.941406 224.160156 180.003906 224.621094 178.851562 C 224.707031 178.652344 224.789062 178.453125 224.871094 178.25 L 224.976562 178.09375 C 225.757812 176.925781 226.3125 175.859375 226.6875 175.144531 C 226.746094 175.035156 226.800781 174.925781 226.859375 174.816406 C 228.679688 172.144531 231.199219 169.355469 234.757812 166.066406 C 237.40625 163.957031 240.738281 161.964844 245.179688 159.828125 C 248.9375 158.339844 253.21875 157.457031 257.363281 156.753906 C 261.703125 156.605469 266.234375 156.609375 270.449219 157.363281 C 275.761719 158.675781 279.898438 160.132812 283.402344 161.933594 C 288.328125 164.855469 292.019531 167.574219 295 170.476562 C 295.035156 170.511719 295.066406 170.542969 295.101562 170.578125 C 295.277344 170.769531 295.441406 170.972656 295.609375 171.171875 C 296.160156 171.828125 296.90625 172.722656 297.847656 173.667969 L 298.492188 174.335938 L 299.003906 175.085938 C 299.761719 176.234375 300.503906 177.148438 301.054688 177.824219 C 301.144531 177.9375 301.238281 178.046875 301.328125 178.160156 C 302.011719 179.40625 302.742188 180.644531 303.515625 181.859375 C 305.789062 186.414062 307.695312 190.492188 308.34375 194.105469 C 308.492188 194.933594 308.6875 195.683594 308.972656 196.476562 C 309.074219 196.824219 309.203125 197.902344 309.296875 198.691406 C 309.433594 199.84375 309.601562 201.242188 309.894531 202.777344 C 309.875 203.460938 309.859375 204.375 309.929688 205.453125 C 309.949219 206.476562 310.027344 207.347656 310.089844 208.019531 C 310.097656 208.109375 310.105469 208.199219 310.113281 208.285156 C 310.105469 208.40625 310.097656 208.53125 310.09375 208.65625 C 309.722656 217.761719 307.300781 226.714844 303.085938 234.550781 C 299.378906 241.207031 294.050781 247.382812 287.671875 252.421875 C 287.597656 252.476562 287.527344 252.535156 287.457031 252.59375 C 282.304688 256.816406 276.667969 259.324219 271.324219 261.386719 C 269.914062 261.855469 268.535156 262.34375 267.207031 262.851562 C 267.011719 262.894531 266.820312 262.925781 266.628906 262.964844 C 265.972656 263.09375 265.160156 263.25 264.246094 263.484375 C 263.183594 263.734375 262.132812 264 261.125 264.269531 C 260.671875 264.304688 260.078125 264.351562 259.390625 264.449219 C 257.398438 264.683594 255.84375 264.910156 254.742188 265.089844 C 214.957031 264.410156 182.796875 231.855469 182.796875 191.914062 C 182.792969 128.738281 233.464844 63.558594 256.011719 37.6875 Z M 269.726562 247.039062 L 269.742188 247.074219 C 268.398438 250.300781 265.980469 252.878906 263.1875 254.433594 C 264.480469 253.707031 265.632812 252.792969 266.644531 251.746094 C 266.648438 251.738281 266.65625 251.730469 266.664062 251.722656 C 267.960938 250.367188 269.011719 248.78125 269.726562 247.039062 Z M 270.628906 238.796875 C 271.128906 241.699219 270.785156 244.40625 269.863281 246.773438 L 269.847656 246.742188 C 270.792969 244.292969 271.105469 241.566406 270.628906 238.796875 Z M 204.382812 408.113281 C 180.011719 422.1875 147.613281 429.320312 108.089844 429.320312 C 77.925781 429.320312 50.480469 425.03125 34.222656 421.835938 C 43.492188 394.816406 66.589844 337.34375 105.601562 300.609375 C 105.382812 301.136719 105.1875 301.632812 105.03125 302.03125 C 104.957031 302.230469 104.886719 302.425781 104.804688 302.617188 C 104.78125 302.664062 104.757812 302.714844 104.734375 302.761719 L 103.734375 304.832031 C 103.363281 305.601562 103.058594 306.398438 102.824219 307.222656 L 102.183594 309.460938 C 102.152344 309.566406 102.140625 309.609375 102.113281 309.714844 C 102.03125 309.980469 101.929688 310.242188 101.835938 310.503906 C 101.480469 311.472656 101 312.789062 100.613281 314.390625 C 98.976562 320.875 98.179688 327.78125 98.109375 336.113281 C 98.109375 336.359375 98.113281 336.605469 98.125 336.847656 C 98.394531 343.496094 99.613281 350.316406 101.960938 358.316406 C 102.03125 358.5625 102.109375 358.804688 102.195312 359.050781 C 104.738281 366.316406 108.460938 372.660156 111.765625 377.90625 C 112.097656 378.4375 112.464844 378.945312 112.863281 379.429688 C 116.714844 384.125 121.449219 389.539062 127.355469 394.105469 C 127.574219 394.273438 127.796875 394.4375 128.023438 394.59375 C 134.464844 399.027344 140.097656 402.089844 145.75 404.234375 C 146.015625 404.332031 146.28125 404.425781 146.546875 404.511719 C 153.652344 406.753906 159.625 408 165.34375 408.425781 C 166.941406 408.5625 168.289062 408.503906 169.195312 408.464844 C 169.316406 408.457031 169.4375 408.449219 169.558594 408.445312 C 169.570312 408.449219 169.578125 408.449219 169.589844 408.449219 L 171.472656 408.550781 C 171.742188 408.566406 172.007812 408.570312 172.273438 408.570312 C 173.160156 408.570312 174.042969 408.492188 174.917969 408.335938 C 175.242188 408.277344 175.5625 408.230469 175.882812 408.191406 C 175.964844 408.183594 176.046875 408.171875 176.128906 408.160156 L 176.316406 408.15625 C 177.367188 408.121094 179.125 408.066406 181.21875 407.585938 C 181.386719 407.546875 181.550781 407.507812 181.71875 407.460938 C 182.304688 407.304688 182.855469 407.195312 183.40625 407.121094 C 184.136719 407.023438 184.859375 406.875 185.566406 406.671875 L 186.570312 406.386719 C 191.167969 405.082031 196.332031 403.617188 201.382812 400.636719 C 203.71875 399.566406 205.464844 398.300781 206.703125 397.40625 C 206.886719 397.269531 207.070312 397.132812 207.257812 397.003906 C 209.722656 395.722656 211.367188 394.121094 212.21875 393.257812 C 212.28125 393.207031 212.347656 393.152344 212.410156 393.097656 C 213.195312 392.546875 214.601562 391.539062 216.035156 389.96875 C 222.960938 382.960938 228.285156 374.601562 231.445312 365.765625 C 231.503906 365.609375 231.554688 365.449219 231.605469 365.289062 C 238.0625 345.144531 232.597656 329.46875 229.902344 323.59375 C 227.453125 318.144531 225.007812 314.5625 223.742188 312.777344 C 223.65625 312.632812 223.574219 312.488281 223.484375 312.34375 C 223.4375 312.261719 223.378906 312.191406 223.328125 312.113281 C 223.171875 311.863281 223.003906 311.621094 222.832031 311.382812 C 222.699219 311.195312 222.5625 311.015625 222.421875 310.835938 C 222.34375 310.738281 222.28125 310.636719 222.199219 310.539062 C 222.058594 310.371094 221.910156 310.214844 221.765625 310.054688 C 221.707031 309.992188 221.652344 309.925781 221.597656 309.867188 C 221.304688 309.554688 221.003906 309.253906 220.691406 308.972656 C 219.261719 307.390625 216.335938 304.265625 211.820312 300.898438 C 202.285156 293.539062 189.078125 289.910156 176.449219 291.199219 C 176.285156 291.214844 176.125 291.234375 175.960938 291.257812 C 168.921875 292.203125 161.921875 294.75 155.679688 298.628906 C 154.285156 299.417969 153.210938 300.296875 152.453125 301 C 151.367188 301.695312 149.953125 302.78125 148.621094 304.398438 C 147.816406 305.101562 146.671875 306.171875 145.542969 307.707031 C 143.109375 310.410156 141.640625 313.238281 140.605469 315.222656 C 140.394531 315.632812 140.1875 316.039062 139.964844 316.425781 C 139.519531 317.210938 139.148438 318.03125 138.851562 318.878906 C 138.078125 320.402344 137.664062 321.804688 137.421875 322.871094 C 136.871094 324.25 136.527344 325.703125 136.402344 327.191406 C 136.226562 327.902344 136.039062 328.828125 135.941406 329.898438 C 135.574219 333.464844 135.828125 336.578125 136.03125 339.085938 L 136.101562 339.96875 C 136.144531 340.570312 136.226562 341.167969 136.347656 341.757812 C 137.023438 345.160156 138.183594 348.015625 139.027344 350.101562 L 139.421875 351.078125 C 139.664062 351.691406 139.945312 352.289062 140.269531 352.867188 C 141.65625 355.363281 143.210938 357.28125 144.347656 358.679688 C 144.648438 359.050781 144.949219 359.410156 145.214844 359.769531 C 145.734375 360.488281 146.320312 361.15625 146.960938 361.769531 C 153.433594 367.964844 161.84375 371.210938 170 371.210938 C 175.351562 371.210938 180.59375 369.8125 185.101562 366.929688 C 192.082031 362.472656 194.128906 353.199219 189.667969 346.214844 C 185.378906 339.503906 176.640625 337.355469 169.773438 341.160156 C 169.46875 341.128906 168.921875 341.007812 168.285156 340.570312 C 168.066406 340.296875 167.851562 340.03125 167.648438 339.78125 C 167.367188 339.4375 167.019531 339.007812 166.769531 338.679688 C 166.453125 337.894531 166.113281 337.050781 165.914062 336.429688 C 165.832031 335.414062 165.753906 334.390625 165.753906 333.617188 C 165.871094 333.15625 165.984375 332.613281 166.078125 332 C 166.21875 331.574219 166.332031 331.171875 166.421875 330.800781 C 166.558594 330.488281 166.691406 330.167969 166.8125 329.847656 C 166.949219 329.589844 167.082031 329.328125 167.21875 329.066406 C 167.457031 328.609375 167.765625 328.019531 167.96875 327.667969 C 168.40625 327.226562 168.816406 326.757812 169.195312 326.265625 C 169.515625 325.980469 169.886719 325.628906 170.285156 325.222656 C 170.527344 325.046875 170.773438 324.855469 171.027344 324.648438 C 171.410156 324.347656 171.75 324.058594 172.046875 323.789062 C 174.472656 322.375 177.164062 321.402344 179.734375 321.019531 C 186.183594 320.453125 191.570312 323.152344 193.535156 324.683594 C 193.628906 324.757812 193.726562 324.832031 193.824219 324.902344 C 196.355469 326.777344 197.828125 328.414062 198.710938 329.390625 C 198.75 329.4375 198.792969 329.476562 198.835938 329.523438 C 198.910156 329.628906 198.980469 329.726562 199.039062 329.8125 C 199.816406 330.894531 201.113281 332.707031 202.558594 335.933594 C 202.582031 335.980469 202.601562 336.027344 202.625 336.074219 C 203.5625 338.113281 206.355469 345.535156 203.113281 355.898438 C 201.410156 360.550781 198.507812 365.027344 194.707031 368.875 C 194.269531 369.1875 193.707031 369.605469 193.085938 370.140625 C 192.550781 370.570312 192.09375 370.980469 191.71875 371.339844 C 190.664062 371.984375 189.796875 372.613281 189.101562 373.113281 C 188.945312 373.226562 188.789062 373.347656 188.632812 373.457031 C 187.851562 373.789062 187.101562 374.1875 186.390625 374.648438 C 184.699219 375.738281 181.628906 376.609375 178.382812 377.53125 L 178.28125 377.558594 C 177.246094 377.726562 176.207031 377.933594 175.171875 378.179688 C 174.445312 378.203125 173.375 378.25 172.136719 378.429688 C 171.925781 378.457031 171.71875 378.484375 171.507812 378.511719 L 171.324219 378.503906 C 169.914062 378.40625 168.707031 378.460938 167.898438 378.496094 C 167.78125 378.5 167.664062 378.507812 167.546875 378.511719 C 164.3125 378.265625 160.636719 377.480469 156.019531 376.042969 C 152.871094 374.804688 149.476562 372.917969 145.398438 370.132812 C 142.226562 367.621094 139.328125 364.359375 136.648438 361.125 C 134.351562 357.4375 132.085938 353.503906 130.628906 349.480469 C 129.113281 344.230469 128.308594 339.921875 128.113281 335.976562 C 128.179688 330.25 128.691406 325.695312 129.714844 321.671875 C 129.726562 321.621094 129.738281 321.570312 129.75 321.523438 C 129.828125 321.277344 129.921875 321.035156 130.011719 320.792969 C 130.308594 319.984375 130.707031 318.894531 131.058594 317.601562 L 131.3125 316.714844 L 131.703125 315.902344 C 132.316406 314.667969 132.738281 313.566406 133.046875 312.753906 C 133.101562 312.621094 133.148438 312.484375 133.199219 312.355469 C 133.949219 311.125 134.65625 309.863281 135.320312 308.59375 C 138.125 304.347656 140.703125 300.664062 143.503906 298.300781 C 144.152344 297.753906 144.699219 297.214844 145.246094 296.566406 C 145.496094 296.308594 146.355469 295.664062 146.984375 295.191406 C 147.921875 294.492188 149.054688 293.644531 150.242188 292.613281 C 150.84375 292.289062 151.640625 291.847656 152.535156 291.253906 C 153.414062 290.722656 154.128906 290.21875 154.683594 289.828125 C 154.757812 289.777344 154.832031 289.722656 154.90625 289.671875 C 155.011719 289.617188 155.121094 289.5625 155.226562 289.507812 C 163.304688 285.273438 172.269531 282.894531 181.160156 282.628906 C 188.777344 282.523438 196.789062 284.035156 204.355469 287.042969 C 204.4375 287.074219 204.519531 287.105469 204.601562 287.140625 C 210.835938 289.492188 215.824219 293.117188 220.285156 296.714844 C 221.386719 297.695312 222.503906 298.648438 223.617188 299.554688 C 223.75 299.699219 223.875 299.851562 224 299.996094 C 224.441406 300.5 224.980469 301.121094 225.640625 301.800781 C 226.402344 302.605469 227.160156 303.386719 227.878906 304.105469 C 228.136719 304.480469 228.476562 304.972656 228.90625 305.519531 C 230.105469 307.128906 231.078125 308.363281 231.785156 309.226562 C 237.644531 319.78125 240.75 331.371094 240.988281 343.144531 C 240.972656 344.199219 240.96875 345.257812 240.988281 346.316406 C 240.851562 352.109375 240.03125 357.925781 238.492188 363.667969 C 233.429688 382.550781 221.316406 398.339844 204.382812 408.113281 Z M 208.664062 305.265625 L 208.683594 305.238281 C 210.527344 305 212.359375 305.125 214.085938 305.53125 C 212.964844 305.269531 211.816406 305.132812 210.664062 305.132812 C 209.996094 305.128906 209.328125 305.175781 208.664062 305.265625 Z M 214.523438 305.636719 C 214.699219 305.683594 214.871094 305.734375 215.042969 305.785156 C 214.871094 305.734375 214.699219 305.683594 214.523438 305.636719 Z M 215.585938 305.960938 C 215.742188 306.015625 215.894531 306.070312 216.046875 306.128906 C 215.894531 306.070312 215.738281 306.015625 215.585938 305.960938 Z M 216.636719 306.371094 C 216.765625 306.429688 216.898438 306.484375 217.027344 306.542969 C 216.898438 306.480469 216.769531 306.429688 216.636719 306.371094 Z M 208.335938 305.3125 C 205.753906 305.714844 203.238281 306.804688 201.082031 308.597656 C 203.335938 306.71875 205.847656 305.667969 208.355469 305.285156 Z M 403.910156 429.320312 C 378.652344 429.320312 356.316406 426.390625 337.113281 420.613281 C 337.691406 420.542969 338.203125 420.464844 338.632812 420.398438 C 338.835938 420.367188 339.042969 420.328125 339.25 420.300781 C 339.300781 420.300781 339.347656 420.296875 339.398438 420.292969 L 341.695312 420.121094 C 342.554688 420.058594 343.402344 419.921875 344.238281 419.714844 L 346.496094 419.148438 C 346.59375 419.125 346.632812 419.113281 346.730469 419.089844 C 347.003906 419.023438 347.28125 418.984375 347.558594 418.933594 C 348.578125 418.757812 349.960938 418.515625 351.546875 418.046875 C 357.972656 416.222656 364.347656 413.460938 371.605469 409.351562 C 371.816406 409.230469 372.023438 409.105469 372.230469 408.976562 C 377.84375 405.425781 383.144531 400.960938 388.910156 394.917969 C 389.089844 394.730469 389.261719 394.539062 389.433594 394.34375 C 394.457031 388.5 398.085938 382.109375 400.976562 376.628906 C 401.269531 376.074219 401.523438 375.503906 401.742188 374.917969 C 403.882812 369.238281 406.203125 362.433594 407.207031 355.027344 C 407.242188 354.757812 407.273438 354.484375 407.292969 354.210938 C 407.914062 346.429688 407.753906 340.015625 406.777344 334.03125 C 406.734375 333.753906 406.679688 333.476562 406.621094 333.203125 C 405.011719 325.925781 403.101562 320.125 400.613281 314.96875 C 399.933594 313.519531 399.207031 312.378906 398.722656 311.617188 C 398.65625 311.515625 398.589844 311.417969 398.53125 311.316406 C 398.523438 311.300781 398.515625 311.289062 398.507812 311.277344 L 397.65625 309.597656 C 397.136719 308.574219 396.5 307.617188 395.761719 306.738281 C 395.550781 306.488281 395.351562 306.234375 395.160156 305.980469 C 395.105469 305.90625 395.050781 305.832031 394.992188 305.757812 L 394.890625 305.59375 C 394.335938 304.703125 393.414062 303.210938 391.953125 301.644531 C 391.828125 301.511719 391.699219 301.375 391.566406 301.246094 C 391.15625 300.832031 390.789062 300.417969 390.445312 299.972656 C 390 299.394531 389.515625 298.847656 388.988281 298.339844 L 388.273438 297.644531 C 384.835938 294.304688 380.972656 290.550781 375.847656 287.652344 C 373.753906 286.164062 371.785156 285.285156 370.394531 284.660156 C 370.183594 284.566406 369.96875 284.476562 369.765625 284.382812 C 367.425781 282.890625 365.222656 282.265625 364.046875 281.960938 C 363.96875 281.929688 363.886719 281.902344 363.808594 281.875 C 362.941406 281.46875 361.359375 280.753906 359.285156 280.296875 C 349.746094 277.800781 339.839844 277.371094 330.605469 279.058594 C 330.445312 279.085938 330.285156 279.117188 330.125 279.152344 C 309.457031 283.628906 298.605469 296.203125 294.863281 301.472656 C 291.367188 306.320312 289.488281 310.230469 288.582031 312.21875 C 288.507812 312.339844 288.4375 312.464844 288.367188 312.59375 C 288.3125 312.691406 288.273438 312.789062 288.21875 312.890625 C 288.089844 313.136719 287.964844 313.390625 287.847656 313.648438 C 287.75 313.867188 287.65625 314.089844 287.566406 314.3125 C 287.515625 314.433594 287.457031 314.546875 287.414062 314.671875 C 287.347656 314.84375 287.300781 315.015625 287.242188 315.1875 C 287.207031 315.292969 287.171875 315.394531 287.140625 315.5 C 287.011719 315.914062 286.898438 316.332031 286.808594 316.75 C 286.15625 318.78125 284.910156 322.878906 284.25 328.480469 C 282.644531 340.425781 286.109375 353.675781 293.539062 363.964844 C 293.632812 364.097656 293.730469 364.226562 293.828125 364.355469 C 298.179688 369.988281 303.882812 374.777344 310.359375 378.238281 C 311.738281 379.046875 313.027344 379.539062 314.015625 379.84375 C 315.167969 380.4375 316.816406 381.125 318.886719 381.46875 C 319.898438 381.8125 321.394531 382.265625 323.285156 382.476562 C 325.523438 382.953125 327.613281 383.070312 329.410156 383.070312 C 330.46875 383.070312 331.429688 383.03125 332.257812 382.996094 C 332.71875 382.972656 333.171875 382.949219 333.617188 382.945312 C 334.523438 382.941406 335.429688 382.851562 336.320312 382.679688 C 338.007812 382.585938 339.417969 382.25 340.457031 381.929688 C 341.9375 381.71875 343.386719 381.285156 344.742188 380.640625 C 345.445312 380.441406 346.328125 380.144531 347.292969 379.699219 C 350.546875 378.242188 353.101562 376.480469 355.164062 375.058594 L 355.929688 374.53125 C 356.433594 374.1875 356.914062 373.816406 357.371094 373.417969 C 359.988281 371.121094 361.890625 368.675781 363.277344 366.890625 L 363.917969 366.074219 C 364.320312 365.5625 364.691406 365.027344 365.027344 364.46875 C 366.5 362.011719 367.382812 359.699219 368.03125 358.011719 C 368.203125 357.566406 368.363281 357.128906 368.542969 356.71875 C 368.902344 355.910156 369.1875 355.070312 369.398438 354.214844 C 372.917969 339.800781 366.78125 324.828125 354.796875 318.609375 C 347.445312 314.792969 338.390625 317.65625 334.574219 325.007812 C 330.902344 332.078125 333.410156 340.71875 340.140625 344.765625 C 340.265625 345.046875 340.4375 345.582031 340.375 346.347656 C 340.25 346.671875 340.128906 346.984375 340.015625 347.28125 C 339.855469 347.703125 339.65625 348.222656 339.496094 348.605469 C 338.976562 349.273438 338.417969 349.988281 337.980469 350.46875 C 337.140625 351.046875 336.292969 351.628906 335.625 352.011719 C 335.167969 352.144531 334.632812 352.316406 334.050781 352.542969 C 333.609375 352.636719 333.207031 352.742188 332.84375 352.84375 C 332.5 352.886719 332.160156 352.933594 331.820312 352.988281 C 331.53125 353 331.238281 353.011719 330.945312 353.023438 C 330.429688 353.046875 329.765625 353.082031 329.359375 353.074219 C 328.757812 352.917969 328.148438 352.796875 327.535156 352.714844 C 327.125 352.582031 326.636719 352.433594 326.085938 352.292969 C 325.792969 352.164062 325.484375 352.035156 325.160156 351.914062 C 324.730469 351.742188 324.328125 351.601562 323.960938 351.484375 C 321.527344 350.09375 319.339844 348.25 317.722656 346.210938 C 313.996094 340.914062 313.648438 334.894531 313.992188 332.425781 C 314.011719 332.308594 314.023438 332.1875 314.039062 332.066406 C 314.398438 328.9375 315.078125 326.839844 315.484375 325.589844 C 315.503906 325.535156 315.515625 325.480469 315.535156 325.421875 C 315.589844 325.300781 315.640625 325.191406 315.683594 325.089844 C 316.234375 323.878906 317.152344 321.851562 319.226562 318.984375 C 319.253906 318.945312 319.28125 318.90625 319.308594 318.867188 C 320.609375 317.03125 325.644531 310.894531 336.234375 308.527344 C 341.121094 307.671875 346.445312 307.949219 351.683594 309.320312 C 352.164062 309.539062 352.808594 309.816406 353.570312 310.085938 C 354.21875 310.339844 354.808594 310.53125 355.308594 310.679688 C 356.390625 311.265625 357.367188 311.703125 358.148438 312.050781 C 358.324219 312.128906 358.503906 312.207031 358.679688 312.285156 C 359.359375 312.796875 360.078125 313.246094 360.835938 313.636719 C 362.636719 314.5625 364.933594 316.792969 367.367188 319.160156 L 367.410156 319.203125 C 368.078125 320.023438 368.78125 320.820312 369.511719 321.59375 C 369.890625 322.203125 370.460938 323.097656 371.230469 324.074219 C 371.359375 324.242188 371.488281 324.414062 371.621094 324.589844 L 371.703125 324.75 C 372.332031 326.027344 372.980469 327.050781 373.421875 327.738281 C 373.480469 327.835938 373.546875 327.933594 373.605469 328.03125 C 375.011719 330.949219 376.167969 334.523438 377.230469 339.238281 C 377.734375 342.59375 377.792969 346.476562 377.425781 351.386719 C 376.828125 355.402344 375.398438 359.6875 373.996094 363.472656 C 371.953125 367.300781 369.683594 371.226562 366.925781 374.503906 C 363.128906 378.449219 359.796875 381.304688 356.488281 383.4375 C 351.488281 386.246094 347.289062 388.078125 343.292969 389.207031 C 343.246094 389.21875 343.199219 389.234375 343.152344 389.246094 C 342.898438 389.304688 342.640625 389.34375 342.386719 389.386719 C 341.539062 389.535156 340.390625 389.734375 339.09375 390.078125 L 338.207031 390.300781 L 337.3125 390.367188 C 335.929688 390.449219 334.761719 390.636719 333.894531 390.777344 C 333.753906 390.800781 333.613281 390.824219 333.472656 390.84375 C 332.0625 390.8125 330.625 390.828125 329.175781 390.886719 C 324.09375 390.582031 319.609375 390.191406 316.164062 388.949219 C 315.363281 388.660156 314.617188 388.453125 313.777344 388.304688 C 313.425781 388.21875 312.429688 387.792969 311.707031 387.480469 C 310.636719 387.023438 309.339844 386.46875 307.863281 385.957031 C 307.28125 385.597656 306.503906 385.128906 305.539062 384.648438 C 304.636719 384.152344 303.84375 383.785156 303.226562 383.5 C 303.148438 383.464844 303.066406 383.425781 302.984375 383.390625 C 302.882812 383.324219 302.78125 383.257812 302.679688 383.191406 C 294.976562 378.320312 288.4375 371.746094 283.757812 364.175781 C 279.84375 357.632812 277.160156 349.929688 275.988281 341.886719 C 275.972656 341.796875 275.960938 341.707031 275.945312 341.621094 C 274.867188 335.050781 275.507812 328.910156 276.394531 323.246094 C 276.695312 321.804688 276.960938 320.367188 277.1875 318.949219 C 277.246094 318.757812 277.316406 318.574219 277.378906 318.390625 C 277.597656 317.753906 277.863281 316.980469 278.117188 316.074219 C 278.429688 315.03125 278.726562 313.996094 278.996094 312.980469 C 279.195312 312.570312 279.449219 312.027344 279.707031 311.378906 C 280.523438 309.496094 281.109375 308.019531 281.503906 306.972656 C 294.699219 285.058594 318.628906 271.496094 344.300781 271.496094 C 357.0625 271.496094 369.691406 274.894531 380.824219 281.320312 C 435.535156 312.90625 466.644531 389.375 477.777344 421.835938 C 461.519531 425.03125 434.070312 429.320312 403.910156 429.320312 Z M 289.617188 329.035156 L 289.585938 329.03125 C 288.347656 327.417969 287.492188 325.597656 286.996094 323.730469 C 287.144531 324.285156 287.332031 324.828125 287.542969 325.359375 C 287.542969 325.363281 287.546875 325.363281 287.546875 325.367188 C 288.0625 326.675781 288.753906 327.914062 289.617188 329.035156 Z M 286.96875 323.632812 C 286.882812 323.308594 286.816406 322.984375 286.753906 322.65625 C 286.816406 322.984375 286.882812 323.3125 286.96875 323.632812 Z M 286.710938 322.441406 C 286.648438 322.09375 286.605469 321.75 286.570312 321.40625 C 286.605469 321.753906 286.648438 322.101562 286.710938 322.441406 Z M 286.546875 321.246094 C 286.511719 320.839844 286.488281 320.4375 286.484375 320.035156 C 286.488281 320.441406 286.511719 320.84375 286.546875 321.246094 Z M 289.820312 329.292969 C 291.457031 331.324219 293.648438 332.953125 296.273438 333.925781 C 293.527344 332.910156 291.371094 331.265625 289.785156 329.289062 Z M 289.820312 329.292969 " style=" fill-rule:nonzero;fill-opacity:1;" stroke="#FFFFFF" fill="#FFFFFF"/>
</g>
</svg>
