<?xml version="1.0" encoding="iso-8859-1"?>
<!-- Generator: Adobe Illustrator 19.0.0, SVG Export Plug-In . SVG Version: 6.00 Build 0)  -->
<svg xmlns="http://www.w3.org/2000/svg" xmlns:xlink="http://www.w3.org/1999/xlink" version="1.1" id="Capa_1" x="0px" y="0px" viewBox="0 0 480.004 480.004" style="enable-background:new 0 0 480.004 480.004;" xml:space="preserve" width="512px" height="512px">
<g>
	<g>
		<path d="M479.338,468.81l-45.16-103.56c-2.44-7.304-8.272-13.032-15.616-15.32l-116.848-37.184l-12.512-31.28l36.944-44.336    c1.2-1.448,1.856-3.256,1.856-5.128v-16h8c13.232,0,24-10.768,24-24v-32c0-13.232-10.768-24-24-24h-8v-8h8    c2.216,0,4.344-0.92,5.848-2.544c1.512-1.624,2.288-3.808,2.128-6.024l-5.872-82.28c-1.488-20.832-19.008-37.152-39.904-37.152    h-114.2c-22.056,0-40,17.944-40,40v80c0,4.416,3.576,8,8,8v8h-8c-13.232,0-24,10.768-24,24v32c0,13.232,10.768,24,24,24h8v16    c0,1.872,0.656,3.68,1.848,5.12l36.808,44.176l-14.6,32.808l-40.32,12.6L61.434,349.93c-7.344,2.288-13.176,8.016-15.36,14.656    L0.666,468.81c-1.08,2.472-0.832,5.328,0.64,7.576c1.488,2.256,4,3.616,6.696,3.616h464c2.696,0,5.208-1.36,6.696-3.616    C480.17,474.13,480.418,471.282,479.338,468.81z M328.002,152.002h8c4.416,0,8,3.592,8,8v32c0,4.408-3.584,8-8,8h-8V152.002z     M152.002,200.002h-8c-4.416,0-8-3.592-8-8v-32c0-4.408,3.584-8,8-8h8V200.002z M298.314,329.114l28.616,8.944l-51.632,42.608    l-21.088-26.352L298.314,329.114z M261.282,391.41l-21.28,21.28l-21.28-21.28l21.28-26.6L261.282,391.41z M192.81,315.826    l11.368-25.536l32.848,13.144c0.96,0.376,1.968,0.568,2.976,0.568s2.016-0.192,2.968-0.568l32.576-13.032l10.44,26.112    l-45.984,26.272L192.81,315.826z M160.002,40.002c0-13.232,10.768-24,24-24h114.2c12.528,0,23.048,9.792,23.944,22.288    l5.264,73.712h-15.408h-40c-37.16,0-56-13.456-56-40c0-4.416-3.576-8-8-8s-8,3.584-8,8c0,22.056-17.944,40-40,40V40.002z     M168.002,229.106V127.394c16.8-2.416,31.232-12.296,39.768-26.184c10.92,17.312,33.048,26.792,64.232,26.792h40v101.104    l-36.848,44.216l-35.152,14.064L204.85,273.33L168.002,229.106z M181.962,329.018l45.864,25.392l-21,26.248L154.61,337.57    L181.962,329.018z M201.762,464.002H20.21l40.8-93.704c0.808-2.432,2.752-4.336,5.192-5.104l70.168-21.928l66.264,54.688    l12.504,12.504L201.762,464.002z M218.25,464.002l10.08-40.352l6.008,6.008c1.568,1.56,3.616,2.344,5.664,2.344    c2.048,0,4.096-0.784,5.656-2.344l6.008-6.008l10.088,40.352H218.25z M278.242,464.002l-13.384-53.544l10.704-10.704    c1.328-0.248,2.6-0.704,3.656-1.576l65.952-54.424l3.456,1.08l-28.216,84.64c-0.856,2.576-0.36,5.408,1.336,7.528l21.6,27H278.242    z M336.97,430.402l26.928-80.8l12.88,4.024l6.944,83.344l-23.056,23.056L336.97,430.402z M379.314,464.002l18.344-18.344    c1.664-1.664,2.504-3.976,2.312-6.32l-6.712-80.56l20.544,6.416c2.448,0.76,4.392,2.664,5.456,5.768l40.536,93.04H379.314z" fill="#ab9b81"/>
	</g>
</g>
<g>
</g>
<g>
</g>
<g>
</g>
<g>
</g>
<g>
</g>
<g>
</g>
<g>
</g>
<g>
</g>
<g>
</g>
<g>
</g>
<g>
</g>
<g>
</g>
<g>
</g>
<g>
</g>
<g>
</g>
</svg>
