<?xml version="1.0"?>
<svg xmlns="http://www.w3.org/2000/svg" height="512px" version="1.1" viewBox="0 0 512 512" width="512px">
<g id="surface1">
<path d="M 431.15625 345.632812 C 414.714844 340.152344 396.414062 335.535156 376.746094 331.847656 C 381.277344 330.167969 385.671875 328.390625 389.902344 326.511719 C 429.785156 308.785156 451.75 283.742188 451.75 256 C 451.75 228.253906 429.785156 203.214844 389.902344 185.488281 C 375.351562 179.019531 358.914062 173.730469 341.175781 169.71875 C 344.039062 168.097656 346.835938 166.410156 349.527344 164.617188 C 376.59375 146.574219 391.5 121.96875 391.5 95.335938 C 391.5 68.699219 376.59375 44.09375 349.527344 26.050781 C 324.332031 9.25 291.113281 0 256 0 C 220.886719 0 187.671875 9.25 162.472656 26.046875 C 135.40625 44.09375 120.5 68.699219 120.5 95.335938 C 120.5 121.96875 135.40625 146.574219 162.472656 164.617188 C 165.160156 166.410156 167.960938 168.097656 170.824219 169.71875 C 153.085938 173.730469 136.648438 179.023438 122.097656 185.488281 C 82.214844 203.214844 60.25 228.257812 60.25 256 C 60.25 283.746094 82.214844 308.785156 122.097656 326.511719 C 126.328125 328.390625 130.722656 330.167969 135.253906 331.847656 C 115.585938 335.539062 97.28125 340.152344 80.84375 345.632812 C 14.023438 367.90625 0 396.554688 0 416.667969 C 0 436.777344 14.023438 465.429688 80.84375 487.703125 C 127.851562 503.371094 190.054688 512 256 512 C 321.945312 512 384.148438 503.371094 431.15625 487.703125 C 497.976562 465.429688 512 436.777344 512 416.667969 C 512 396.554688 497.976562 367.90625 431.15625 345.632812 Z M 150.5 95.335938 C 150.5 59.917969 198.8125 30 256 30 C 313.1875 30 361.5 59.917969 361.5 95.335938 C 361.5 130.746094 313.1875 160.667969 256 160.667969 C 198.8125 160.667969 150.5 130.746094 150.5 95.335938 Z M 134.28125 299.097656 C 106.710938 286.84375 90.25 270.730469 90.25 256 C 90.25 241.269531 106.710938 225.15625 134.28125 212.902344 C 166.546875 198.5625 209.773438 190.667969 256 190.667969 C 302.226562 190.667969 345.453125 198.5625 377.71875 212.902344 C 405.289062 225.15625 421.75 241.269531 421.75 256 C 421.75 270.734375 405.289062 286.84375 377.71875 299.097656 C 345.453125 313.4375 302.226562 321.335938 256 321.335938 C 209.773438 321.335938 166.546875 313.4375 134.28125 299.097656 Z M 421.671875 459.242188 C 377.640625 473.917969 318.804688 482 256 482 C 193.195312 482 134.359375 473.917969 90.328125 459.242188 C 45.800781 444.398438 30 427.03125 30 416.667969 C 30 406.304688 45.800781 388.9375 90.328125 374.09375 C 134.359375 359.414062 193.195312 351.335938 256 351.335938 C 318.804688 351.335938 377.640625 359.414062 421.671875 374.09375 C 466.199219 388.9375 482 406.304688 482 416.667969 C 482 427.03125 466.199219 444.398438 421.671875 459.242188 Z M 421.671875 459.242188 " style=" fill-rule:nonzero;fill-opacity:1;" stroke="#FFFFFF" fill="#FFFFFF"/>
</g>
</svg>
