<?xml version="1.0" encoding="iso-8859-1"?>
<!-- Generator: Adobe Illustrator 19.0.0, SVG Export Plug-In . SVG Version: 6.00 Build 0)  -->
<svg version="1.1" id="Capa_1" xmlns="http://www.w3.org/2000/svg" xmlns:xlink="http://www.w3.org/1999/xlink" x="0px" y="0px"
	 viewBox="0 0 512 512" style="enable-background:new 0 0 512 512;" xml:space="preserve">
<g>
	<g>
		<path d="M282,412c-5.52,0-10,4.48-10,10c0,5.52,4.48,10,10,10c5.52,0,10-4.48,10-10C292,416.48,287.52,412,282,412z"/>
	</g>
</g>
<g>
	<g>
		<path d="M242,412h-72c-5.523,0-10,4.478-10,10c0,5.522,4.477,10,10,10h72c5.523,0,10-4.478,10-10C252,416.478,247.523,412,242,412
			z"/>
	</g>
</g>
<g>
	<g>
		<path d="M362,372H90c-27.57,0-50,22.43-50,50s22.43,50,50,50h272c27.57,0,50-22.43,50-50S389.57,372,362,372z M90,452
			c-16.542,0-30-13.458-30-30s13.458-30,30-30s30,13.458,30,30S106.542,452,90,452z M322.027,452H129.973
			c6.292-8.363,10.027-18.752,10.027-30s-3.735-21.637-10.027-30h192.054C315.735,400.363,312,410.753,312,422
			S315.735,443.637,322.027,452z M362,452c-16.542,0-30-13.458-30-30s13.458-30,30-30s30,13.458,30,30S378.542,452,362,452z"/>
	</g>
</g>
<g>
	<g>
		<path d="M502,302c-5.523,0-10,4.478-10,10c0,11.028-8.972,20-20,20s-20-8.972-20-20s8.972-20,20-20c5.523,0,10-4.478,10-10v-30
			c3.788,0,7.25-2.14,8.944-5.528l20-40c1.408-2.814,1.408-6.129,0-8.943l-20-40C489.25,154.14,485.788,152,482,152V40
			c0-22.056-17.944-40-40-40c-14.449,0-27.684,7.761-34.787,20.293L303.59,162.809l-1.587-3.174
			C293.474,142.589,276.337,132,257.28,132H110c-27.57,0-50,22.421-50,49.98V232H50c-16.542,0-30,13.458-30,30v60
			c0,11.961,7.039,22.307,17.19,27.121c-3.809,2.771-7.437,5.846-10.833,9.24C9.36,375.369,0,397.971,0,422
			c0,49.626,40.374,90,90,90h272c24.03,0,46.63-9.36,63.644-26.361C442.64,468.631,452,446.029,452,422
			c0-39.672-25.803-73.428-61.507-85.375l-31.82-63.633L462,85.74V152c-3.788,0-7.25,2.14-8.944,5.528l-20,40
			c-1.408,2.814-1.408,6.129,0,8.943l20,40C454.75,249.86,458.212,252,462,252v21.266c-17.233,4.452-30,20.13-30,38.734
			c0,22.056,17.944,40,40,40c22.056,0,40-17.944,40-40C512,306.478,507.523,302,502,302z M295.824,192l39.996,80H200v-80H295.824z
			 M432,422c0,18.69-7.282,36.271-20.499,49.497C398.27,484.719,380.69,492,362,492H90c-38.598,0-70-31.401-70-70
			c0-18.69,7.282-36.271,20.499-49.497C53.73,359.281,71.31,352,90,352h272C400.598,352,432,383.401,432,422z M365.82,332H50
			c-5.514,0-10-4.486-10-10v-60c0-5.514,4.486-10,10-10h20c5.523,0,10-4.478,10-10v-60.02C80,165.449,93.458,152,110,152h147.28
			c11.435,0,21.719,6.355,26.835,16.58l1.71,3.42H130c-5.523,0-10,4.478-10,10v100c0,5.522,4.477,10,10,10h215.816L365.82,332z
			 M180,192v80h-40v-80H180z M347.816,251.271l-34.152-68.31l91.927-126.428C411.895,70.36,425.838,80,442,80
			c0.111,0,0.22-0.008,0.33-0.009L347.816,251.271z M461.058,46.039L457.3,52.86C453.484,57.403,447.95,60,442,60
			c-11.028,0-20-8.972-20-20c0-3.161,0.72-6.169,2.125-8.958l3.754-5.163c0.02-0.028,0.036-0.057,0.056-0.085
			C431.626,22.138,436.646,20,442,20c11.028,0,20,8.972,20,20C462,42.072,461.675,44.098,461.058,46.039z M453.18,202l15-30h7.64
			l15,30l-15,30h-7.64L453.18,202z"/>
	</g>
</g>
<g>
</g>
<g>
</g>
<g>
</g>
<g>
</g>
<g>
</g>
<g>
</g>
<g>
</g>
<g>
</g>
<g>
</g>
<g>
</g>
<g>
</g>
<g>
</g>
<g>
</g>
<g>
</g>
<g>
</g>
</svg>
