<?xml version="1.0"?>
<svg xmlns="http://www.w3.org/2000/svg" height="512px" viewBox="-79 0 512 512" width="512px"><path d="m354.039062 244.714844c0-32.207032-9.148437-65.039063-27.195312-97.582032-14.109375-25.453124-33.691406-50.796874-58.1875-75.335937-41.332031-41.390625-82.171875-66.109375-83.890625-67.144531l-7.746094-4.652344-7.746093 4.652344c-1.71875 1.03125-42.558594 25.753906-83.886719 67.144531-24.5 24.539063-44.078125 49.882813-58.191407 75.335937-18.046874 32.542969-27.195312 65.375-27.195312 97.582032 0 92.488281 71.300781 168.625 161.820312 176.359375v90.925781h30.089844v-90.898438c90.667969-7.585937 162.128906-83.792968 162.128906-176.386718zm-323.949218 0c0-61.746094 41.398437-116.300782 76.125-151.195313 20.238281-20.328125 40.65625-36.5625 55.605468-47.46875v158.949219l-39.1875-39.1875-21.273437 21.273438 60.460937 60.464843v54.734375l-39.1875-39.1875-21.273437 21.277344 60.460937 60.460938v46.03125c-73.902343-7.632813-131.730468-70.265626-131.730468-146.152344zm161.820312 146.183594v-46.089844l60.4375-60.4375-21.273437-21.273438-39.164063 39.160156v-54.734374l60.4375-60.4375-21.273437-21.277344-39.164063 39.164062v-159.152344c14.976563 10.910157 35.542969 27.230469 55.914063 47.699219 34.730469 34.894531 76.128906 89.449219 76.128906 151.195313 0 75.992187-57.992187 138.695312-132.042969 146.183594zm0 0" fill="#FFFFFF"/></svg>
