<?xml version="1.0"?>
<svg xmlns="http://www.w3.org/2000/svg" height="512px" version="1.1" viewBox="0 -37 512 512" width="512px">
<g id="surface1">
<path d="M 352 77.660156 L 352 0 L 160 0 L 160 77.660156 L 0 77.660156 L 0 438 L 512 438 L 512 77.660156 Z M 482 193.433594 L 317 236.800781 L 317 212.671875 L 304.371094 212.671875 L 304.371094 107.660156 L 482 107.660156 Z M 274.371094 107.660156 L 274.371094 212.671875 L 238.710938 212.671875 L 238.710938 107.660156 Z M 287 242.832031 L 287 272.332031 L 225 272.332031 L 225 242.832031 Z M 238.710938 302.332031 L 274.371094 302.332031 L 274.371094 330.945312 L 238.710938 330.945312 Z M 190 30 L 322 30 L 322 77.660156 L 190 77.660156 Z M 30 107.660156 L 208.710938 107.660156 L 208.710938 212.671875 L 195 212.671875 L 195 236.800781 L 30 193.433594 Z M 482 408.003906 L 30 408.003906 L 30 224.449219 L 195 267.820312 L 195 302.332031 L 208.710938 302.332031 L 208.710938 360.945312 L 304.371094 360.945312 L 304.371094 302.332031 L 317 302.332031 L 317 267.820312 L 482 224.449219 Z M 482 408.003906 " style=" fill-rule:nonzero;fill-opacity:1;" stroke="#ab9b81" fill="#ab9b81"/>
</g>
</svg>
