<?xml version="1.0"?>
<svg xmlns="http://www.w3.org/2000/svg" viewBox="-96 0 512 512.00101" width="512px" height="512px"><path d="m172.199219 192.46875v-27.441406h32.039062c38.425781 0 69.6875-31.261719 69.6875-69.683594v-8.914062c0-8.359376-6.777343-15.136719-15.136719-15.136719h-47.179687c-14.617187 0-28.191406 4.53125-39.410156 12.253906 0-4.753906 0-9.007813 0-13.859375 0-38.425781-31.261719-69.6875-69.6875-69.6875h-47.179688c-8.359375 0-15.136719 6.777344-15.136719 15.136719v8.914062c0 38.425781 31.261719 69.683594 69.6875 69.683594h32.042969v99.269531c-81.53125 9.152344-141.925781 78.230469-141.925781 158.996094 0 89.503906 72.535156 160 160.003906 160 88.222656 0 160-71.773438 160-160 0-82.863281-63.851562-153.171875-147.804687-159.53125zm39.410156-90.902344h31.550781c-2.992187 18.785156-19.304687 33.1875-38.921875 33.1875h-31.546875c2.988282-18.785156 19.304688-33.1875 38.917969-33.1875zm41.585937 160.246094c12.613282 13.058594 22.355469 28.675781 28.417969 44.972656h-11.6875c-9.226562 0-16.730469-7.511718-16.730469-16.742187zm-143.3125-198.351562c-19.617187 0-35.929687-14.402344-38.921874-33.1875h31.550781c19.617187 0 35.929687 14.402343 38.921875 33.1875zm39.980469 316.636718h20.734375c10.8125 0 15.589844 8.183594 18.453125 10.421875 2.328125 2.328125 3.589844 5.425781 3.554688 8.71875-.074219 6.117188 2.136719.59375-61.417969 79.265625-3.613281-.816406-7.054688-1.71875-11.679688-3.234375v-90.921875c0-16.550781-6.4375-32.105468-18.136718-43.800781l-53.605469-53.605469c13.632813-23.421875 34.4375-41.863281 57.597656-52.628906l62.894531 62.890625c2.808594 2.808594 2.828126 7.367187-.003906 10.199219l-34.292968 34.296875c-14.136719 14.136719-4.117188 38.398437 15.902343 38.398437zm-119.589843-28.097656c0-11.992188 1.601562-23.691406 4.757812-34.980469l44.933594 44.933594c5.976562 5.976563 9.269531 13.929687 9.269531 22.394531v76.425782c-36.421875-23.640626-58.960937-64.207032-58.960937-108.773438zm137.523437 129.484375 42.699219-52.449219c16.472656-16.484375 16.59375-43.292968-.039063-59.925781-2.726562-1.976563-14.480469-19.285156-39.859375-19.285156h-1.949218l21.003906-21.011719c14.660156-14.640625 14.671875-38.367188.007812-53.019531l-51.664062-51.660157c28.777344-4.90625 58.773437-.128906 84.921875 14.402344v51.507813c0 25.925781 21.085937 47.015625 47.003906 47.015625h18.945313c.566406 4.953125.859374 9.945312.859374 14.941406.003907 68.914062-54.011718 125.4375-121.929687 129.484375zm0 0" fill="#FFFFFF"/></svg>
