<?xml version="1.0" encoding="iso-8859-1"?>
<!-- Generator: Adobe Illustrator 19.0.0, SVG Export Plug-In . SVG Version: 6.00 Build 0)  -->
<svg xmlns="http://www.w3.org/2000/svg" xmlns:xlink="http://www.w3.org/1999/xlink" version="1.1" id="Layer_1" x="0px" y="0px" viewBox="0 0 512 512" style="enable-background:new 0 0 512 512;" xml:space="preserve" width="512px" height="512px">
<g>
	<g>
		<path d="M498.255,367.242c-1.282-2.428-3.566-4.171-6.246-4.766c-0.676-0.15-54.965-12.124-124.16-21.685    c-0.097-0.315-0.163-0.633-0.296-0.942c-30.509-71.187-40.612-71.187-46.04-71.187c-6.543,0-39.05,6.681-65.514,12.362v-68.518    c0.396,0,0.79-0.031,1.181-0.081c9.069,2.416,18.274,3.608,27.404,3.608c27.67,0,54.63-10.857,74.872-31.098    c28.057-28.058,38.081-69.018,26.159-106.895c-0.917-2.917-3.201-5.201-6.118-6.118c-37.874-11.919-78.834-1.898-106.895,26.159    c-4.367,4.368-8.243,9.078-11.722,14.01c-3.489-27.697-16.014-53.97-36.559-74.515C190.415,3.672,140.923-8.438,95.152,5.969    c-2.916,0.917-5.199,3.201-6.117,6.117c-14.407,45.771-2.294,95.265,31.61,129.171c24.462,24.462,57.034,37.577,90.473,37.577    c8.705,0,17.468-0.912,26.164-2.723v108.977c-3.626,0.796-6.846,1.507-9.476,2.09c-19.576-3.777-51.799-7.913-62.657,2.943    l-17.155,17.157l-25.982,8.66c-31.553,10.519-42.366,57.143-43.55,62.701c-10.717-6.483-21.293-14.19-31.462-23.341    c-1.718-1.547-3.948-2.403-6.261-2.403c-20.724,0-28.078,10.084-28.078,18.718c0,2.695,0,7.713,19.672,30.533    c7.6,8.815,23.622,26.455,45.545,45.548C111.56,477.03,161.686,512,209.204,512c54.75,0,93.893-11.517,122.475-19.927    c15.477-4.554,27.703-8.15,36.631-8.15c28.524,0,83.448-9.099,85.771-9.486c3.225-0.538,5.936-2.72,7.151-5.757l37.437-93.592    C499.689,372.539,499.537,369.67,498.255,367.242z M285.84,111.319c21.934-21.934,53.445-30.484,83.276-22.896    c7.588,29.829-0.962,61.342-22.896,83.276c-20.068,20.069-48.149,28.892-75.629,24.442c7.598-12.588,18.283-27.044,27.031-31.418    c4.622-2.311,6.496-7.933,4.185-12.557c-2.312-4.621-7.936-6.496-12.557-4.185c-10.934,5.467-21.248,18.034-28.899,29.368    C259.133,153.046,268.107,129.052,285.84,111.319z M194.654,107.984c24.55,16.367,33.412,50.107,33.551,50.651    c0.006,0.025,0.018,0.047,0.025,0.072c-34.297,5.418-69.302-5.642-94.348-30.687c-27.787-27.786-38.433-67.837-28.369-105.574    c37.734-10.057,77.788,0.581,105.574,28.369c24.252,24.251,35.438,57.846,31.202,91.091    c-5.412-13.719-16.755-35.832-37.253-49.496c-4.305-2.87-10.114-1.705-12.979,2.596    C189.19,99.305,190.352,105.117,194.654,107.984z M96.713,382.808c2.307-11.536,12.412-42.843,31.219-49.112l28.077-9.359    c1.378-0.46,2.63-1.234,3.658-2.261l18.569-18.569c4.598-2.83,27.287-1.694,47.853,2.409c1.277,0.254,2.595,0.241,3.864-0.041    c37.204-8.267,78.515-16.861,89.418-18.29c5.419,5.973,17.071,28.485,26.907,50.371c-10.859-1.348-21.964-2.611-33.192-3.734    c-92.975-9.301-146.489-1.275-159.049,23.845c-2.518,5.037-2.354,10.528,0.451,15.066c7.747,12.536,35.26,17.198,101.511,17.198    c9.436,0,13.812,2.484,14.693,4.611c0.783,1.887-0.203,4.916-2.3,7.185c-4.784,2.847-36.333,11.951-81.773,9.093    c-25.613-1.615-58.975-7.447-92.25-23.882C95.516,386.111,96.359,384.574,96.713,382.808z M445.822,456.805    c-14.424,2.27-55.41,8.399-77.512,8.399c-11.626,0-24.992,3.932-41.914,8.911c-27.49,8.089-65.138,19.166-117.192,19.166    c-40.47,0-85.094-30.767-115.402-56.577c-32.273-27.483-54.244-54.18-60.838-64.024c1.271-0.355,2.861-0.658,4.476-0.85    c50.935,44.267,110.251,56.154,151.395,58.264c42.498,2.182,83.891-5.82,92.501-14.427c7.698-7.699,10.371-18.907,6.65-27.889    c-2.501-6.038-9.982-16.166-31.987-16.166c-58.305,0-77.615-4.05-83.789-7.225c5.922-6.71,31.474-22.289,139.013-11.54    c72.654,7.266,140.337,20.36,165.932,25.622L445.822,456.805z" fill="#FFFFFF"/>
	</g>
</g>
<g>
</g>
<g>
</g>
<g>
</g>
<g>
</g>
<g>
</g>
<g>
</g>
<g>
</g>
<g>
</g>
<g>
</g>
<g>
</g>
<g>
</g>
<g>
</g>
<g>
</g>
<g>
</g>
<g>
</g>
</svg>
